<svg width="937" height="686" viewBox="0 0 937 686" fill="none" xmlns="http://www.w3.org/2000/svg">
<path d="M736.712 378.815L773.122 347.828L846.716 455.508L790.164 457.832L736.712 378.815Z" fill="#E8B690"/>
<path d="M655.869 276.85L609.082 278.29V308.803L655.869 306.788V276.85Z" fill="#E8B690"/>
<path d="M609.367 285.98C612.6 287.596 623.061 289.688 631.049 289.688C639.322 289.688 649.593 285.98 655.869 283.412" stroke="black"/>
<path d="M555.826 302.897L692.556 299.411L619.801 385.879L555.826 302.897Z" fill="#E8B690"/>
<path d="M556.185 302.356C556.185 302.356 533.203 305.619 507.021 332.335C480.839 359.051 445.047 406.704 445.047 406.704L517.867 422.197L533.36 388.499C533.36 388.499 521.891 435.367 551.153 467.351C573.119 491.361 628.363 484.335 628.363 484.335L770.376 491.187L745.582 400.406L758.016 418.324L816.116 375.717C816.116 375.717 752.763 317.683 733.226 306.771C713.689 295.859 691.969 298.331 691.969 298.331L660.794 298.331C660.794 298.331 631.977 356.065 625.864 362.865L593.785 300.186L556.185 302.356Z" fill="#F5C61C"/>
<path d="M662.973 299.866L678.053 333.384L640.793 343.273L653.657 363.355L624.185 371.201" stroke="#1A3349" stroke-width="2" stroke-miterlimit="10"/>
<path d="M592.938 300.899L574.842 329.095L609.868 334.429L595.355 357.545C595.355 357.545 611.222 363.098 616.567 370.633C627.864 386.562 612.967 432.268 634.068 455.121" stroke="#1A3349" stroke-width="2" stroke-miterlimit="10"/>
<path d="M767.184 186.636C767.14 188.882 766.638 191.096 765.709 193.142C758.016 223.881 717.822 221.169 717.822 221.169C717.822 221.169 691.972 292.827 621.673 292.827C543.18 292.827 524.036 199.478 520.578 173.139C518.798 159.583 515.675 145.197 515.675 127.434C515.675 98.465 525.226 86.7634 525.226 86.7634C525.226 86.7634 510.137 95.3517 516.452 82.549C522.126 71.0127 541.882 66.6218 541.882 66.6218C563.082 54.8032 517.979 104.321 516.452 111.034C514.388 119.569 516.452 137.559 516.452 137.559L557.694 130.62L593.61 125.416C593.61 125.416 590.14 117.678 591.476 104.06C592.648 96.812 594.206 89.6314 596.143 82.549C596.143 82.549 597.08 97.7284 599.11 105.101C601.14 112.474 599.11 68.5585 599.11 68.5585C598.316 62.2506 607.202 105.913 608.41 99.6713C610.405 88.5167 615.35 84.0583 615.35 84.0583L611.215 58.8751L625.934 66.6219H667.766L724.317 115.039L717.822 178.309C717.822 178.309 724.311 141.584 741.852 149.39C756.496 156.069 767.635 173.799 767.184 186.636Z" fill="#E8B690"/>
<path d="M600.369 220.007C600.369 220.007 596.785 226.085 600.48 229.693C603.586 232.695 607.82 226.033 607.82 226.033C607.82 226.033 607.74 233.921 614.177 234.406C618.116 234.701 619.583 225.027 619.583 225.027C619.583 225.027 622.903 230.543 626.321 229.693C632.758 228.115 628.645 220.782 628.645 220.782" stroke="#231F20" stroke-width="2" stroke-miterlimit="10"/>
<path d="M732.119 204.99L742.928 181.727" stroke="#231F20" stroke-width="2" stroke-miterlimit="10"/>
<path d="M735.293 173.799L752.071 192.413" stroke="#231F20" stroke-width="2" stroke-miterlimit="10"/>
<path d="M728.214 465.121H728.18" stroke="#231F20" stroke-miterlimit="10"/>
<path d="M633.169 140.092C633.169 140.092 627.478 135.286 633.169 130.967C638.86 126.647 701.148 126.578 701.148 126.578L633.169 140.092Z" fill="black"/>
<path d="M582.332 143.856C582.332 143.856 586.739 138.652 581.43 134.783C576.12 130.915 523.011 135.841 523.011 135.841L582.332 143.856Z" fill="black"/>
<path d="M593.96 250.237C593.96 250.237 609.961 257.098 617.278 256.523C624.595 255.948 638.513 250.117 638.513 250.117C638.513 250.117 636.967 265.244 617.099 264.893C597.23 264.542 593.96 250.237 593.96 250.237Z" fill="#C16952"/>
<path d="M597.894 256.999C597.894 256.999 607.272 265.236 618.876 264.912C624.532 264.658 629.912 262.395 634.048 258.529" stroke="black" stroke-miterlimit="10"/>
<path d="M637.707 250.376C631.887 254.409 624.972 256.565 617.89 256.553C606.777 256.213 595.517 250.337 595.517 250.337C595.517 250.337 608.208 249 612.734 251.205C614.036 251.917 615.516 252.239 616.996 252.131C616.996 252.131 619.225 251.115 621.915 250.264C624.606 249.414 637.707 250.376 637.707 250.376Z" fill="#C16952" stroke="black" stroke-miterlimit="10"/>
<path d="M741.625 151.072C756.425 157.665 767.564 175.394 767.113 188.232C772.648 161.655 788.801 60.9504 724.865 25.821C603.915 -40.8121 543.188 42.5617 543.188 42.5617C543.188 42.5617 518.46 57.5446 507.408 84.0521C499.826 102.371 503.535 123.162 507.408 137.117C511.282 151.072 515.93 160.745 515.93 160.745C533.909 160.745 586.812 146.424 601.531 137.117C627.735 120.547 616.699 80.5661 636.841 80.5661C652.954 80.5661 659.564 91.4115 660.855 96.8342C660.855 96.8342 672.863 76.2493 685.583 86.7635C698.303 97.2776 689.114 108.149 696.041 137.117C700.302 154.935 717.595 179.991 717.595 179.991C717.595 179.991 724.084 143.266 741.625 151.072Z" fill="#0D2A3E"/>
<circle r="21.5457" transform="matrix(-1 0 0 1 564.443 176.837)" fill="white" stroke="black" stroke-width="2"/>
<ellipse rx="11.8662" ry="16.2171" transform="matrix(-1 0 0 1 564.048 176.837)" fill="black"/>
<path d="M565.629 154.687C553.605 154.687 543.084 164.18 543.084 174.068C543.084 174.068 548.621 166.553 565.629 166.157C582.638 165.762 585.802 173.277 585.802 173.277C585.802 166.157 577.654 154.687 565.629 154.687Z" fill="#E8B690" stroke="black" stroke-width="2"/>
<path d="M564.047 165.762V147.963" stroke="black" stroke-width="2" stroke-linecap="round"/>
<path d="M556.927 166.737L552.181 151.127" stroke="black" stroke-width="2" stroke-linecap="round"/>
<path d="M549.017 169.706L541.106 159.829" stroke="black" stroke-width="2" stroke-linecap="round"/>
<path d="M579.215 168.124L586.198 156.664" stroke="black" stroke-width="2" stroke-linecap="round" stroke-linejoin="round"/>
<path d="M572.098 165.946L575.914 150.336" stroke="black" stroke-width="2" stroke-linecap="round"/>
<circle cx="663.762" cy="176.837" r="21.5457" fill="white" stroke="black" stroke-width="2"/>
<ellipse cx="664.157" cy="176.837" rx="11.8662" ry="16.2171" fill="black"/>
<path d="M662.575 154.687C674.599 154.687 685.121 164.18 685.121 174.068C685.121 174.068 679.583 166.553 662.575 166.157C645.567 165.762 642.403 173.277 642.403 173.277C642.403 166.157 650.551 154.687 662.575 154.687Z" fill="#E8B690" stroke="black" stroke-width="2"/>
<path d="M664.157 165.762V147.963" stroke="black" stroke-width="2" stroke-linecap="round"/>
<path d="M671.277 166.737L676.023 151.127" stroke="black" stroke-width="2" stroke-linecap="round"/>
<path d="M679.188 169.706L687.099 159.829" stroke="black" stroke-width="2" stroke-linecap="round"/>
<path d="M648.99 168.124L642.007 156.664" stroke="black" stroke-width="2" stroke-linecap="round" stroke-linejoin="round"/>
<path d="M656.107 165.946L652.291 150.336" stroke="black" stroke-width="2" stroke-linecap="round"/>
<path d="M737.874 218.845C731.367 221.634 722.639 220.136 718.507 220.007C718.507 221.944 715.099 227.289 712.31 233.177C709.521 239.064 703.143 249.316 700.302 253.318C707.274 250.478 725.634 242.938 732.451 238.599C739.268 234.261 752.722 216.005 759.565 205.676C754.788 209.42 744.381 216.056 737.874 218.845Z" fill="#0D2A3E"/>
<path d="M489.203 355.554C481.767 351.835 474.743 362.784 472.161 368.723L484.555 374.146C489.203 369.498 496.64 359.272 489.203 355.554Z" fill="#E8B690" stroke="black"/>
<path d="M457.713 345.804C449.645 347.812 451.424 360.698 453.322 366.89L466.266 362.954C466.777 356.4 465.782 343.795 457.713 345.804Z" fill="#E8B690" stroke="black"/>
<path d="M844.889 388.886C841.791 378.351 836.368 340.082 834.044 322.264C834.948 318.133 837.143 308.32 838.692 302.123C840.241 295.925 836.239 287.662 834.044 284.305C835.206 281.465 836.833 275.087 834.044 272.298C831.255 269.509 825.652 269.07 823.198 269.199C823.198 266.359 821.959 260.445 817.001 259.516C812.043 258.586 808.221 265.584 806.93 269.199C804.864 258.87 799.772 237.763 798.796 234.726C795.31 223.881 785.24 214.972 787.563 230.853C788.217 235.317 792.986 265.068 795.31 275.784C789.629 270.878 777.028 259.671 772.07 254.093C765.872 247.121 759.675 245.572 760.45 254.093C761.07 260.91 778.784 280.69 787.563 289.728C783.69 292.31 776.408 299.954 778.267 309.869C780.127 319.785 801.249 325.621 811.578 327.3C810.933 332.981 809.099 353.251 806.93 388.886C804.761 424.521 814.29 444.275 819.325 449.698H858.833V438.465C858.833 430.719 848.763 402.056 844.889 388.886Z" fill="#E8B690"/>
<path d="M442.995 348.902C434.926 350.911 436.705 363.796 438.604 369.988L451.548 366.052C452.058 359.499 451.063 346.894 442.995 348.902Z" fill="#E8B690" stroke="black"/>
<path d="M805.271 396.246C803.979 404.251 802.172 422.43 805.271 431.106C808.369 439.782 812.759 447.116 814.567 449.698" stroke="black"/>
<path d="M429.825 354.325C421.756 356.334 423.536 369.219 425.434 375.411L438.378 371.475C438.889 364.922 437.893 352.317 429.825 354.325Z" fill="#E8B690" stroke="black"/>
<path d="M936.669 498.609H197.517L7.65239 685.886H796.028L936.669 498.609Z" fill="#C51760"/>
<path d="M878 444.915H180L0.705994 621.766H745.19L878 444.915Z" fill="#F6277E"/>
<path d="M416.656 359.748C408.587 361.756 410.367 374.642 412.265 380.834L425.209 376.898C425.72 370.344 424.724 357.739 416.656 359.748Z" fill="#E8B690" stroke="black"/>
<path d="M531.109 387.946C543.461 386.708 561.989 381.242 569.709 378.664V353.911C569.709 346.485 574.855 338.441 577.429 335.347C579.487 340.761 584.84 353.138 589.781 359.326C595.956 367.061 602.132 362.42 616.8 367.834C628.534 372.166 638.159 376.859 641.504 378.664C643.82 378.148 649.687 376.188 654.628 372.476C659.568 368.763 663.891 362.162 665.435 359.326C666.465 366.803 667.52 387.636 661.961 392.587C655.014 398.775 663.12 408.831 658.874 421.207C656.318 428.656 646.634 438.274 636.945 444.305C638.148 446.717 641.212 453.484 639.96 457.562C638.416 462.59 637.142 465.723 632.047 465.878C625.678 466.071 622.783 463.364 616.8 465.878C612.014 467.889 608.545 472.851 584.763 469.534C593.43 476.478 600.641 482.976 603.676 485.409C611.396 491.597 605.22 497.785 595.956 496.238C586.693 494.691 563.533 466.845 544.233 462.977C524.934 459.11 481.702 473.806 449.279 473.033C416.855 472.259 375.168 443.639 382.888 408.057C390.608 372.476 433.839 360.099 463.174 359.326C492.51 358.552 515.67 389.493 531.109 387.946Z" fill="white"/>
<path d="M615.736 408.086C613.657 408.139 608.239 407.637 603.205 405.205C598.171 402.772 595.587 397.386 594.924 394.997" stroke="black" stroke-width="2"/>
<path d="M640.114 413.747C641.343 414.306 644.707 415.38 648.332 415.203C651.957 415.026 654.867 412.463 655.869 411.203" stroke="black" stroke-width="2"/>
<path d="M632.172 436.829C632.172 436.829 631.942 440.774 629.733 441.9C627.524 443.026 624.077 443.337 621.131 440.689C618.15 438.009 619.536 431.797 623.825 433.847" stroke="black"/>
<path d="M632.541 436.993C632.541 436.993 632.675 440.351 634.884 441.477C637.093 442.603 639.339 442.095 640.889 440.702C642.181 439.54 643.018 436.054 640.889 434.505" stroke="black"/>
<path d="M632.387 437.604C632.387 437.604 629.571 435.373 629.871 434.629C630.17 433.885 631.023 432.956 632.387 432.956C634.544 432.956 635.084 433.885 635.263 434.629C635.443 435.373 632.387 437.604 632.387 437.604Z" fill="#926C68"/>
<path d="M474.914 382.602C487.825 385.571 504.351 391.898 508.612 413.589C512.104 431.365 493.377 446.9 488.858 451.16" stroke="black"/>
<path d="M583.368 469.365C575.622 463.297 558.036 450.928 549.67 449.998C539.212 448.836 483.823 459.682 464.843 455.808C449.66 452.71 435.277 445.996 429.983 443.026" stroke="black"/>
<path d="M623.095 464.007C625.29 462.845 629.758 460.664 631.617 457.255C633.476 453.847 634.457 450.929 634.716 449.896" stroke="black"/>
<path d="M616.695 465.254C610.911 464.708 603.344 462.438 597.356 459.927C589.496 456.633 579.712 447.628 579.552 446.576" stroke="black"/>
<path d="M459.38 372.231C453.237 372.243 452.495 362.578 452.202 358.401L459 357.124L465.963 358.373C465.732 362.569 465.932 372.217 459.38 372.231Z" fill="#E8B690"/>
<path d="M424.268 364.148L424.265 364.106L431.199 358.903L436.499 358.66C438.55 363.304 438.604 373.978 431.563 374.01C424.984 374.041 424.57 368.32 424.268 364.148Z" fill="#E8B690"/>
<path d="M418.024 377.145C411.846 377.664 409.833 370.308 411.868 365.656L417.656 362.038L421.197 361.379C426.054 364.857 424.915 376.565 418.024 377.145Z" fill="#E8B690"/>
<path d="M450.955 357.896L437.719 356.35C436.892 360.216 436.416 370.896 445.164 370.267C449.3 369.97 452.195 363.695 450.955 357.896Z" fill="#E8B690"/>
<path d="M785.904 289.728C788.873 288.437 795.742 286.087 799.461 287.017C804.109 288.179 815.341 290.115 812.63 294.376C809.919 298.637 802.559 299.024 798.299 297.475C789.003 303.672 797.679 305.919 798.299 307.158" stroke="black"/>
<path d="M831.996 283.918C830.834 287.404 827.658 294.376 824.25 294.376C820.841 294.376 819.731 291.019 819.602 289.341" stroke="black"/>
<path d="M821.151 269.586C821.797 278.366 821.461 295.228 814.954 292.439C808.447 289.65 805.787 276.042 805.271 269.586" stroke="black"/>
<path d="M260.377 492.525C286.041 481.452 443.187 486.791 522.845 490.298C542.29 491.154 552.216 513.432 539.658 528.303C508.809 564.836 462.313 616.728 444.126 620.491C423.159 624.829 270.817 613.422 193.517 607.241C174.385 605.711 165.09 583.642 177.727 569.197C203.238 540.034 239.5 501.533 260.377 492.525Z" fill="#424149"/>
<rect x="104.585" y="385.879" width="354.999" height="235.887" rx="24" fill="#47465A"/>
<path d="M282.085 453.977L285.9 494.612L317.331 468.577L291.295 500.008L331.93 503.823L291.295 507.637L317.331 539.068L285.9 513.033L282.085 553.668L278.27 513.033L246.839 539.068L272.875 507.637L232.24 503.823L272.875 500.008L246.839 468.577L278.27 494.612L282.085 453.977Z" fill="#36CC33"/>
</svg>
