<svg width="342" height="238" viewBox="0 0 342 238" fill="none" xmlns="http://www.w3.org/2000/svg">
<g filter="url(#filter0_ddd)">
<rect x="10.9087" y="0.998169" width="320.686" height="211.069" fill="white"/>
<rect x="10.9087" y="0.998169" width="320.686" height="211.069" stroke="black"/>
<path d="M131.032 99.992C131.032 99.992 131.577 98.8964 132.488 98.8964C134.314 98.8964 134.134 100.357 135.956 100.722C139.573 101.448 143.622 98.8964 143.622 98.8964C143.622 98.8964 137.597 98.5356 134.495 97.44C133.98 97.2552 132.466 96.2827 132.853 95.7943C134.314 93.9727 136.506 92.3315 138.134 91.0555C138.812 90.5275 135.577 87.7686 135.577 87.7686C135.577 87.7686 138.359 86.6334 139.639 87.8082C140.125 88.2779 140.66 88.6925 141.237 89.0446C143.763 90.2591 144.392 88.7146 145.435 87.5838C147.195 85.6874 148.955 82.4401 150.359 81.0189C152.366 79.0081 155.468 75.18 158.205 74.2648C159.288 73.9084 162.038 74.2648 164.045 74.63C165.44 74.8852 167.706 75.18 168.789 76.0908C169.37 76.5792 171.346 78.8277 171.346 78.8277C171.346 78.8277 166.236 75.7256 160.577 77.0016C157.647 77.7103 154.946 79.1551 152.731 81.1993C152.731 81.1993 156.401 78.1764 160.577 78.9993C163.314 79.5493 163.658 80.8253 166.052 80.8253C167.356 80.8759 168.641 80.4921 169.704 79.7341C169.704 79.7341 170.069 82.2861 165.506 84.1341C162.962 85.1506 157.118 84.913 154.557 83.9493C153.096 83.4037 152.084 83.6281 151.477 83.9493C149.1 85.1682 148.009 91.6143 145.457 91.9795C143.613 92.2435 140.572 91.7815 139.067 92.1599C137.866 92.4635 136.15 94.5315 136.15 94.5315C136.15 94.5315 138.381 94.1751 139.252 94.3511C140.123 94.5271 140.893 96.7228 142.535 97.4312C143.855 98.0164 145.725 98.144 146.803 98.1616C146.851 98.1619 146.897 98.1782 146.934 98.208C146.971 98.2377 146.997 98.279 147.008 98.3253C147.018 98.3716 147.013 98.4201 146.993 98.4631C146.973 98.506 146.938 98.5409 146.896 98.562C145.382 99.3496 141.892 101.07 139.252 101.642C137.456 102.016 136.515 102.188 133.971 101.642C132.845 101.396 131.054 99.9964 131.054 99.9964L131.032 99.992ZM139.811 80.6361C140.826 80.4483 141.861 80.3862 142.891 80.4513C143.287 80.4815 143.662 80.6408 143.958 80.9047C144.255 81.1686 144.457 81.5225 144.533 81.9121C144.533 81.9121 146.429 80.6625 147.089 78.8321C147.357 78.1335 147.395 77.368 147.198 76.6465C147.001 75.9249 146.579 75.2849 145.994 74.8192C145.994 74.8192 145.659 76.7156 145.263 77.1908C144.352 78.2865 142.772 78.5549 141.615 79.1973C139.974 80.1081 139.789 80.6581 139.789 80.6581" fill="url(#paint0_linear)"/>
<path d="M233.231 40.6922C233.231 40.6922 228.333 42.6503 226.115 49.0876C224.293 54.3677 226.115 62.5914 218.999 69.5215C217.508 70.9735 215.712 73.1736 210.057 75.18C204.517 77.1424 203.853 80.6537 203.853 80.6537C203.853 80.6537 208.051 77.3669 213.16 76.456C217.111 75.821 221.125 75.6732 225.112 76.016C225.112 76.016 226.168 93.4139 212.157 102.856C208.849 105.146 204.955 106.444 200.935 106.597C198.317 106.597 199.839 111.159 191.254 113.346C188.367 114.085 182.131 113.531 182.131 113.531C182.131 113.531 183.253 119.498 179.39 119.735C167.508 120.466 153.298 124.298 153.298 124.298C153.567 123.039 154.14 121.866 154.967 120.879C155.794 119.893 156.85 119.124 158.042 118.64C159.428 118.037 161.721 118.063 163.697 117.179C166.531 115.911 165.897 110.794 170.175 108.33C175.416 105.321 181.225 110.147 187.421 105.501C188.101 104.938 188.662 104.244 189.069 103.46C189.477 102.676 189.723 101.819 189.793 100.938C189.843 100.13 189.731 99.3193 189.462 98.5552C189.193 97.7911 188.773 97.0888 188.228 96.49C187.682 95.8912 187.022 95.4081 186.286 95.0694C185.55 94.7307 184.754 94.5433 183.944 94.5183C179.984 94.4171 178.518 96.9296 178.664 98.9184C178.765 100.406 180.12 101.475 180.12 101.475C180.12 101.475 179.39 97.0968 183.588 96.7316C185.96 96.5248 187.447 98.5532 187.606 100.564C187.786 102.936 185.229 104.212 184.525 104.392C180.631 105.369 174.668 103.301 168.555 106.491C164.687 108.515 164.564 115.524 160.801 115.524C159.34 115.524 157.312 116.206 155.692 116.985C152.049 118.745 149.21 122.52 149.122 122.635C149.171 122.476 150.579 117.636 149.395 116.528C146.478 113.791 136.074 115.797 131.353 113.791C129.245 112.911 129.346 110.323 129.346 110.323C129.346 110.323 129.711 111.419 132.994 112.523C138.451 114.341 149.408 113.192 154.891 111.793C156.969 111.265 160.828 109.853 162.284 107.868C164.291 105.131 164.379 101.026 166.571 98.2892C167.627 96.9692 171.033 95.5171 171.851 94.0959C172.916 92.2743 172.423 89.3747 175.139 86.7962C178.787 83.329 186.36 83.4213 186.36 83.4213C186.36 83.4213 182.893 75.576 177.238 72.6544C173.211 70.5775 169.207 69.5523 166.289 69.5523C161.126 69.5739 156.141 71.4475 152.242 74.8324C152.313 74.674 154.773 69.5303 153.607 68.5403C152.762 67.8275 151.252 68.2367 151.147 68.2675C151.323 68.1531 156.26 65.051 161.545 63.8894C167.768 62.5166 173.73 62.5386 179.975 64.6198C193.661 69.1783 199.316 81.4061 199.316 81.4061C199.316 81.4061 198.955 75.9324 194.206 70.2739C189.744 64.9498 183.258 62.7938 183.258 62.7938C185.245 59.7688 187.92 57.2569 191.064 55.4633C197.454 51.996 203.659 52.9112 206.577 53.6416C206.937 53.7296 207.298 53.8353 207.65 53.9541C208.002 54.0729 208.394 54.2137 208.755 54.3589C210.979 55.2979 213.068 56.5274 214.968 58.0153C214.92 57.9361 213.604 55.7801 208.768 53.2764L208.42 53.1004C207.888 52.8364 207.347 52.5944 206.792 52.3788C203.694 51.1728 200.353 50.7241 197.046 51.07C193.739 51.4159 190.563 52.5465 187.782 54.3677C184.911 56.2595 182.484 58.7496 180.666 61.6674C180.666 61.6674 178.466 61.1218 177.198 60.7566C176.252 60.4838 173 60.0262 173 60.0262C175.973 55.396 180.175 51.6834 185.137 49.3032C183.473 51.5669 182.577 54.3038 182.58 57.1133C182.58 57.1705 182.58 57.2277 182.58 57.2805C182.635 56.9484 182.707 56.6194 182.796 56.2949C182.795 56.2861 182.795 56.2773 182.796 56.2685C182.879 55.8901 183.913 51.7672 188.957 46.6455C193.406 42.1531 197.238 43.7943 197.238 43.7943C196.575 44.1357 195.962 44.5666 195.417 45.0747C194.994 45.5139 194.626 46.003 194.321 46.5311C195.232 46.3507 196.385 46.3507 198.519 46.3507C199.976 46.3507 201.824 46.4959 203.721 46.5355C205.617 46.5751 207.241 46.4827 208.825 45.8931C211.026 45.0791 214.748 41.9771 216.746 40.877C225.966 35.8566 233.169 40.6922 233.169 40.6922H233.231ZM147.454 67.3435C147.454 67.3435 149.923 64.7518 157.136 62.0634C161.501 60.4206 166.169 59.7363 170.822 60.057C170.822 60.057 172.723 57.5181 173.198 54.7769C174.289 48.388 171.552 45.8359 171.552 45.8359C171.552 45.8359 166.443 47.4771 164.071 51.3052C162.236 54.2709 162.72 55.9473 158.962 56.7833C157.321 57.1441 156.273 57.2937 153.488 59.1549C150.566 61.0792 148.426 63.9828 147.454 67.3435V67.3435ZM192.094 40.1554C191.285 39.9838 190.448 39.9838 189.639 40.1554C188.395 40.4159 187.265 41.0646 186.414 42.008C185.562 42.9513 185.032 44.1407 184.899 45.4047C185.55 45.4537 186.205 45.4108 186.844 45.2771C188.116 45.0098 189.285 44.3856 190.215 43.4778C191.145 42.5699 191.797 41.4159 192.094 40.151" fill="url(#paint1_linear)"/>
<path d="M114.037 148.085C114.037 152.045 111.2 154.023 105.526 154.02H98.2698V132.025H104.805C106.788 131.968 108.766 132.266 110.644 132.905C112.466 133.617 113.377 135.125 113.377 137.428C113.401 137.969 113.31 138.508 113.11 139.011C112.91 139.514 112.605 139.969 112.215 140.345C111.237 141.198 110.094 141.84 108.858 142.233C112.314 143.412 114.04 145.363 114.037 148.085ZM108.572 137.252C108.572 135.386 108.092 134.216 107.128 133.732C106.113 133.274 105.006 133.06 103.894 133.107H103.234V141.837H104.554C107.235 141.837 108.574 140.308 108.572 137.252ZM108.008 151.715C108.783 150.888 109.17 149.637 109.17 147.962C109.17 146.287 108.793 145.009 108.039 144.129C107.704 143.711 107.279 143.375 106.794 143.146C106.31 142.917 105.78 142.802 105.245 142.809H103.234V152.956H104.334C106.006 152.956 107.234 152.542 108.008 151.715Z" fill="#96324D"/>
<path d="M129.302 149.092C129.312 149.804 129.163 150.51 128.864 151.156C128.566 151.803 128.126 152.374 127.577 152.828C126.284 153.807 124.707 154.337 123.084 154.337C121.462 154.337 119.885 153.807 118.591 152.828C118.043 152.374 117.603 151.803 117.305 151.156C117.006 150.51 116.857 149.804 116.866 149.092V144.16C116.856 143.45 117.005 142.746 117.304 142.102C117.603 141.457 118.043 140.888 118.591 140.437C119.889 139.469 121.465 138.946 123.084 138.946C124.704 138.946 126.28 139.469 127.577 140.437C128.126 140.888 128.566 141.457 128.865 142.102C129.164 142.746 129.313 143.45 129.302 144.16V149.092ZM124.999 150.316V142.937C124.999 140.904 124.355 139.887 123.067 139.887C121.779 139.887 121.136 140.904 121.139 142.937V150.316C121.139 152.369 121.782 153.396 123.067 153.396C124.352 153.396 124.996 152.369 124.999 150.316V150.316Z" fill="#96324D"/>
<path d="M131.472 158.042C131.679 158.711 132.022 159.045 132.493 159.045C132.964 159.045 133.197 158.689 133.197 157.981V139.263H137.47V157.51C137.47 159.584 136.349 160.619 134.108 160.616C132.959 160.616 132.141 160.326 131.661 159.736C131.246 159.292 130.972 158.734 130.874 158.135L131.472 158.042ZM133.813 136.152C133.401 135.681 133.172 135.079 133.166 134.453C133.17 133.838 133.4 133.246 133.813 132.79C133.989 132.557 134.217 132.368 134.478 132.237C134.74 132.107 135.028 132.039 135.32 132.039C135.613 132.039 135.901 132.107 136.162 132.237C136.424 132.368 136.652 132.557 136.828 132.79C137.238 133.248 137.466 133.839 137.47 134.453C137.464 135.081 137.229 135.685 136.81 136.152C136.635 136.388 136.409 136.582 136.148 136.717C135.887 136.853 135.599 136.928 135.305 136.935C135.013 136.929 134.725 136.855 134.467 136.719C134.208 136.584 133.984 136.389 133.813 136.152V136.152Z" fill="#96324D"/>
<path d="M153.364 149.092C153.374 149.805 153.224 150.51 152.925 151.157C152.625 151.804 152.185 152.375 151.635 152.828C150.343 153.807 148.766 154.337 147.144 154.337C145.523 154.337 143.946 153.807 142.653 152.828C142.104 152.375 141.663 151.804 141.364 151.157C141.064 150.51 140.914 149.805 140.924 149.092V144.16C140.913 143.449 141.063 142.745 141.362 142.101C141.662 141.456 142.103 140.888 142.653 140.437C143.95 139.469 145.526 138.946 147.144 138.946C148.763 138.946 150.338 139.469 151.635 140.437C152.185 140.888 152.626 141.456 152.926 142.101C153.225 142.745 153.375 143.449 153.364 144.16V149.092ZM149.061 150.316V142.937C149.061 140.904 148.417 139.887 147.129 139.887C145.841 139.887 145.204 140.904 145.219 142.937V150.316C145.219 152.369 145.863 153.396 147.151 153.396C148.439 153.396 149.075 152.369 149.061 150.316V150.316Z" fill="#96324D"/>
<path d="M169.946 152.766C170.386 152.766 170.703 152.432 170.954 151.759L171.548 151.856C171.53 152.136 171.45 152.41 171.315 152.656C171.176 152.951 170.99 153.222 170.765 153.457C170.441 153.768 170.056 154.007 169.633 154.159C169.211 154.31 168.761 154.371 168.314 154.337C166.075 154.337 164.955 153.3 164.952 151.226V142.527C165.003 141.868 164.832 141.21 164.468 140.657C164.312 140.458 164.111 140.299 163.881 140.193C163.652 140.086 163.4 140.036 163.148 140.046C162.593 140.046 162.113 140.398 161.704 141.097C161.286 141.839 161.074 142.679 161.092 143.531V154.025H156.819V139.263H161.092V141.084C161.311 140.428 161.74 139.863 162.313 139.476C162.886 139.089 163.571 138.903 164.261 138.946C165.816 138.946 167.03 139.386 167.905 140.266C168.357 140.75 168.707 141.321 168.934 141.944C169.161 142.567 169.26 143.229 169.225 143.891V151.68C169.225 152.41 169.467 152.766 169.946 152.766Z" fill="#96324D"/>
<path d="M184.772 146.734H177.551V150.316C177.551 152.369 178.388 153.396 180.063 153.396C180.534 153.402 180.999 153.305 181.428 153.112C181.857 152.919 182.238 152.634 182.545 152.278C183.214 151.534 183.549 150.914 183.549 150.408H184.301C184.301 151.143 183.888 151.979 183.06 152.925C182.233 153.871 180.921 154.337 179.1 154.337C177.278 154.337 175.874 153.831 174.827 152.828C174.317 152.351 173.913 151.772 173.642 151.128C173.372 150.484 173.24 149.791 173.256 149.092V144.16C173.242 143.455 173.385 142.757 173.672 142.113C173.96 141.47 174.385 140.898 174.919 140.437C176.028 139.443 177.495 138.946 179.32 138.946C181.144 138.946 182.504 139.465 183.399 140.503C184.302 141.541 184.784 142.878 184.75 144.252L184.772 146.734ZM181.414 145.792V142.937C181.457 142.157 181.288 141.38 180.926 140.688C180.779 140.434 180.565 140.224 180.308 140.083C180.05 139.942 179.758 139.874 179.465 139.887C179.165 139.877 178.868 139.955 178.611 140.111C178.355 140.267 178.15 140.496 178.022 140.767C177.689 141.435 177.528 142.174 177.551 142.919V145.775L181.414 145.792Z" fill="#96324D"/>
<path d="M200.166 139.263V151.825C200.166 154.148 199.522 155.97 198.234 157.29C196.946 158.61 195.245 159.268 193.129 159.265C192.35 159.281 191.581 159.091 190.898 158.715C190.38 158.462 189.928 158.092 189.578 157.633L189.226 157.105L189.855 156.603C189.968 156.792 190.104 156.965 190.26 157.118C190.446 157.316 190.646 157.5 190.859 157.668C191.415 158.029 192.066 158.216 192.729 158.205C193.325 158.23 193.916 158.093 194.441 157.809C194.898 157.528 195.25 157.104 195.444 156.603C195.855 155.325 196.036 153.984 195.976 152.643V152.018C195.774 152.634 195.406 153.183 194.912 153.602C194.341 154.105 193.599 154.369 192.839 154.342C191.206 154.342 189.952 153.902 189.085 153.022C188.218 152.142 187.765 150.914 187.765 149.365V143.905C187.733 143.239 187.841 142.573 188.081 141.951C188.321 141.329 188.689 140.764 189.16 140.292C189.65 139.836 190.227 139.482 190.855 139.25C191.484 139.018 192.152 138.913 192.821 138.941C193.562 138.917 194.288 139.15 194.876 139.601C195.365 139.945 195.724 140.443 195.897 141.014V139.254L200.166 139.263ZM195.893 143.531C195.894 142.656 195.655 141.797 195.202 141.049C194.741 140.275 194.213 139.887 193.618 139.887C193.359 139.867 193.101 139.929 192.88 140.065C192.659 140.201 192.487 140.404 192.39 140.644C192.136 141.349 192.024 142.096 192.06 142.844V150.412C192.012 151.172 192.131 151.934 192.408 152.643C192.518 152.868 192.694 153.054 192.913 153.178C193.131 153.301 193.381 153.355 193.631 153.334C194.218 153.334 194.741 152.967 195.202 152.234C195.67 151.481 195.91 150.608 195.893 149.722V143.531Z" fill="#96324D"/>
<path d="M216.07 149.092C216.08 149.805 215.93 150.51 215.63 151.157C215.331 151.804 214.89 152.375 214.34 152.828C213.048 153.807 211.471 154.337 209.85 154.337C208.228 154.337 206.651 153.807 205.359 152.828C204.809 152.375 204.368 151.804 204.069 151.157C203.77 150.51 203.619 149.805 203.629 149.092V144.16C203.618 143.449 203.768 142.745 204.068 142.101C204.367 141.456 204.809 140.888 205.359 140.437C206.656 139.469 208.231 138.946 209.85 138.946C211.468 138.946 213.043 139.469 214.34 140.437C214.891 140.888 215.332 141.456 215.631 142.101C215.931 142.745 216.081 143.449 216.07 144.16V149.092ZM211.766 150.316V142.937C211.766 140.904 211.119 139.887 209.834 139.887C208.549 139.887 207.902 140.904 207.902 142.937V150.316C207.902 152.369 208.546 153.396 209.834 153.396C211.11 153.396 211.757 152.37 211.757 150.316H211.766Z" fill="#96324D"/>
<path d="M229.125 145.858H226.19V142.967C226.19 141.04 225.393 140.077 223.8 140.077V154.025H219.532V139.263H223.646C226.055 139.263 227.647 140.037 228.421 141.586V139.575H229.143L229.125 145.858Z" fill="#96324D"/>
<path d="M244.234 149.092C244.244 149.805 244.093 150.51 243.794 151.157C243.495 151.804 243.054 152.375 242.504 152.828C241.212 153.807 239.635 154.337 238.013 154.337C236.392 154.337 234.815 153.807 233.523 152.828C232.973 152.375 232.532 151.804 232.233 151.157C231.933 150.51 231.783 149.805 231.793 149.092V144.16C231.782 143.449 231.932 142.745 232.232 142.101C232.531 141.456 232.972 140.888 233.523 140.437C234.82 139.469 236.395 138.946 238.013 138.946C239.632 138.946 241.207 139.469 242.504 140.437C243.054 140.888 243.496 141.456 243.795 142.101C244.095 142.745 244.245 143.449 244.234 144.16V149.092ZM239.93 150.316V142.937C239.93 140.904 239.286 139.887 237.998 139.887C236.713 139.887 236.066 140.904 236.066 142.937V150.316C236.066 152.37 236.713 153.396 237.998 153.396C239.283 153.396 239.93 152.37 239.93 150.316V150.316Z" fill="#96324D"/>
<path d="M116.33 171.185H117.272V163.705H116.33V163.111H118.53L123.23 169.949H123.283V163.705H122.337V163.111H124.977V163.705H124.036V171.775H123.155L118.082 164.391H118.029V171.185H118.975V171.784H116.334L116.33 171.185Z" fill="#F1673A"/>
<path d="M124.096 171.832H123.124L118.076 164.493V171.132H119.018V171.832H116.298V171.132H117.24V163.767H116.298V163.067H118.587L123.238 169.865V163.767H122.296V163.067H125.016V163.767H124.096V171.832ZM123.176 171.731H123.99V163.665H124.937V163.173H122.419V163.665H123.361V170.01H123.216L118.512 163.173H116.382V163.665H117.328V171.238H116.382V171.731H118.899V171.238H117.935V164.348H118.063L123.176 171.731Z" fill="#F1673A"/>
<path d="M128.031 174.41C127.689 174.441 127.349 174.342 127.076 174.133C126.978 174.042 126.9 173.931 126.849 173.807C126.797 173.683 126.773 173.55 126.777 173.416C126.768 173.221 126.832 173.029 126.957 172.879C127.025 172.808 127.107 172.754 127.199 172.719C127.29 172.684 127.388 172.669 127.485 172.677C127.571 172.672 127.656 172.685 127.736 172.715C127.817 172.744 127.89 172.79 127.952 172.848C128.068 172.977 128.128 173.146 128.119 173.319C128.123 173.445 128.083 173.568 128.005 173.667C127.945 173.747 127.865 173.808 127.772 173.843V173.878C127.875 173.914 127.984 173.93 128.093 173.926C128.331 173.919 128.557 173.821 128.726 173.654C128.975 173.405 129.166 173.104 129.285 172.774L129.558 172.074L127.138 165.993H126.478V165.377H129.224V165.976H128.344L130.104 170.565H130.152L131.816 165.976H130.936V165.377H133.255V165.976H132.599L129.866 172.862C129.71 173.276 129.467 173.653 129.153 173.966C129.007 174.113 128.832 174.229 128.639 174.305C128.446 174.382 128.239 174.418 128.031 174.41V174.41Z" fill="#F1673A"/>
<path d="M128.03 174.463C127.675 174.494 127.322 174.39 127.04 174.173C126.936 174.077 126.853 173.96 126.799 173.829C126.744 173.699 126.718 173.558 126.723 173.416C126.714 173.208 126.783 173.004 126.917 172.844C126.99 172.769 127.079 172.71 127.177 172.672C127.275 172.634 127.38 172.618 127.484 172.624C127.577 172.619 127.669 172.633 127.755 172.666C127.842 172.698 127.92 172.749 127.986 172.813C128.111 172.951 128.176 173.133 128.167 173.319C128.172 173.457 128.129 173.593 128.043 173.702C127.995 173.764 127.935 173.816 127.867 173.856C127.942 173.863 128.017 173.863 128.092 173.856C128.318 173.848 128.532 173.754 128.69 173.592C128.936 173.343 129.122 173.043 129.236 172.712L129.5 172.034L127.102 166.002H126.428V165.307H129.271V166.002H128.391L130.09 170.464L131.705 166.002H130.847V165.307H133.271V166.002H132.598L129.878 172.857C129.719 173.279 129.471 173.661 129.152 173.979C129.007 174.131 128.833 174.252 128.641 174.336C128.448 174.419 128.24 174.462 128.03 174.463ZM127.484 172.703C127.394 172.696 127.303 172.709 127.219 172.742C127.134 172.775 127.058 172.826 126.996 172.892C126.877 173.032 126.817 173.212 126.829 173.394C126.824 173.521 126.846 173.648 126.895 173.766C126.943 173.884 127.017 173.99 127.11 174.076C127.373 174.276 127.701 174.37 128.03 174.34C128.23 174.344 128.428 174.307 128.612 174.231C128.797 174.155 128.964 174.043 129.104 173.9C129.411 173.592 129.65 173.223 129.808 172.818L132.55 165.896H133.192V165.404H130.992V165.905H131.872L130.169 170.6H130.05L128.263 165.905H129.17V165.412H126.53V165.905H127.176V165.936L129.601 172.039L129.324 172.756C129.203 173.101 129.008 173.415 128.752 173.676C128.572 173.85 128.334 173.952 128.083 173.962C127.968 173.964 127.853 173.946 127.744 173.909H127.709V173.825H127.744C127.83 173.799 127.904 173.745 127.955 173.671C128.025 173.581 128.061 173.469 128.057 173.354C128.061 173.275 128.05 173.195 128.024 173.119C127.997 173.043 127.956 172.974 127.903 172.914C127.85 172.855 127.786 172.808 127.714 172.775C127.642 172.743 127.564 172.726 127.484 172.725V172.703Z" fill="#F1673A"/>
<path d="M136.595 171.929C136.079 171.96 135.572 171.795 135.173 171.467C135 171.305 134.865 171.107 134.776 170.888C134.687 170.668 134.647 170.432 134.658 170.195C134.654 169.913 134.707 169.634 134.812 169.372C134.921 169.131 135.095 168.926 135.314 168.778C135.591 168.603 135.899 168.481 136.221 168.418C136.67 168.33 137.127 168.288 137.585 168.294H138.491V167.375C138.517 166.961 138.387 166.553 138.126 166.231C137.981 166.087 137.807 165.977 137.616 165.907C137.424 165.837 137.22 165.809 137.017 165.826C136.827 165.827 136.637 165.843 136.449 165.874C136.296 165.901 136.147 165.952 136.009 166.024V166.05C136.116 166.112 136.213 166.191 136.295 166.284C136.395 166.407 136.444 166.565 136.432 166.724C136.438 166.821 136.424 166.919 136.39 167.011C136.356 167.103 136.303 167.186 136.234 167.256C136.087 167.385 135.896 167.451 135.701 167.441C135.606 167.445 135.51 167.431 135.42 167.399C135.331 167.366 135.248 167.316 135.178 167.252C135.107 167.176 135.053 167.086 135.019 166.988C134.985 166.891 134.972 166.787 134.98 166.684C134.984 166.495 135.04 166.311 135.142 166.152C135.264 165.964 135.424 165.804 135.613 165.685C135.851 165.536 136.111 165.426 136.383 165.36C136.724 165.272 137.075 165.231 137.426 165.236C138.008 165.2 138.582 165.386 139.033 165.756C139.229 165.944 139.382 166.172 139.482 166.425C139.581 166.678 139.625 166.949 139.609 167.221V171.216H140.542V171.687C140.427 171.764 140.301 171.822 140.168 171.858C139.996 171.912 139.816 171.937 139.635 171.933C139.494 171.949 139.35 171.932 139.215 171.886C139.08 171.839 138.957 171.764 138.855 171.664C138.753 171.564 138.674 171.443 138.624 171.309C138.574 171.176 138.554 171.033 138.566 170.89V170.855H138.504C138.438 170.998 138.357 171.134 138.262 171.26C138.163 171.395 138.039 171.509 137.897 171.599C137.73 171.707 137.548 171.789 137.356 171.841C137.108 171.906 136.851 171.936 136.595 171.929ZM137.065 171.212C137.251 171.213 137.437 171.187 137.616 171.137C137.775 171.09 137.924 171.014 138.056 170.912C138.188 170.814 138.295 170.686 138.368 170.538C138.446 170.372 138.484 170.19 138.478 170.006V168.827H137.686C137.391 168.823 137.096 168.848 136.806 168.902C136.602 168.937 136.407 169.013 136.234 169.126C136.1 169.22 135.995 169.35 135.93 169.5C135.865 169.665 135.833 169.842 135.838 170.019V170.266C135.828 170.401 135.852 170.537 135.908 170.661C135.964 170.784 136.051 170.892 136.159 170.974C136.428 171.148 136.746 171.231 137.065 171.212V171.212Z" fill="#F1673A"/>
<path d="M139.622 171.982C139.47 171.992 139.318 171.97 139.174 171.919C139.031 171.867 138.9 171.787 138.79 171.682C138.604 171.481 138.502 171.217 138.504 170.943C138.442 171.063 138.371 171.177 138.293 171.286C138.186 171.423 138.058 171.542 137.914 171.638C137.742 171.747 137.556 171.83 137.36 171.885C137.111 171.954 136.853 171.987 136.594 171.982C136.065 172.011 135.545 171.839 135.137 171.502C134.957 171.334 134.816 171.129 134.724 170.901C134.632 170.673 134.591 170.428 134.605 170.182C134.6 169.894 134.653 169.608 134.763 169.342C134.874 169.088 135.056 168.873 135.287 168.721C135.57 168.543 135.883 168.419 136.211 168.356C136.663 168.264 137.123 168.221 137.584 168.228H138.438V167.348C138.466 166.946 138.34 166.548 138.086 166.235C137.945 166.099 137.776 165.995 137.592 165.929C137.408 165.863 137.212 165.837 137.016 165.852C136.829 165.851 136.642 165.867 136.457 165.901C136.327 165.92 136.2 165.957 136.079 166.011C136.167 166.072 136.248 166.143 136.321 166.222C136.427 166.355 136.48 166.523 136.471 166.693C136.477 166.798 136.462 166.903 136.424 167.002C136.387 167.1 136.329 167.19 136.255 167.265C136.098 167.402 135.895 167.472 135.687 167.463C135.585 167.467 135.483 167.451 135.387 167.415C135.291 167.38 135.203 167.326 135.128 167.256C135.054 167.175 134.997 167.08 134.961 166.976C134.924 166.873 134.909 166.763 134.917 166.653C134.92 166.455 134.978 166.261 135.084 166.094C135.209 165.9 135.376 165.736 135.573 165.615C135.813 165.459 136.078 165.345 136.356 165.276C136.701 165.189 137.057 165.147 137.412 165.153C138.007 165.119 138.592 165.309 139.054 165.685C139.255 165.878 139.413 166.113 139.515 166.373C139.618 166.632 139.663 166.911 139.648 167.19V171.15H140.576V171.7C140.457 171.781 140.327 171.843 140.189 171.885C140.006 171.945 139.815 171.978 139.622 171.982V171.982ZM138.46 170.798H138.605V170.886C138.594 171.021 138.613 171.157 138.66 171.285C138.708 171.412 138.783 171.527 138.88 171.622C138.977 171.717 139.094 171.789 139.222 171.834C139.35 171.879 139.486 171.894 139.622 171.88C139.797 171.882 139.972 171.856 140.141 171.806C140.259 171.771 140.371 171.721 140.475 171.656V171.264H139.542V167.225C139.559 166.961 139.517 166.697 139.42 166.451C139.324 166.204 139.175 165.982 138.983 165.799C138.543 165.438 137.982 165.256 137.412 165.289C137.065 165.286 136.719 165.327 136.383 165.412C136.116 165.478 135.862 165.586 135.63 165.733C135.454 165.847 135.304 165.997 135.19 166.173C135.093 166.325 135.039 166.5 135.036 166.679C135.029 166.776 135.041 166.872 135.073 166.963C135.105 167.054 135.155 167.137 135.221 167.208C135.285 167.269 135.361 167.317 135.444 167.348C135.527 167.379 135.616 167.393 135.705 167.388C135.887 167.397 136.065 167.336 136.202 167.216C136.266 167.151 136.316 167.073 136.348 166.988C136.38 166.902 136.393 166.81 136.387 166.719C136.396 166.575 136.353 166.433 136.264 166.319C136.183 166.23 136.09 166.155 135.987 166.094V166.094V166.011H136.013C136.158 165.931 136.316 165.879 136.479 165.857C136.67 165.821 136.863 165.804 137.056 165.804C137.268 165.791 137.48 165.823 137.678 165.899C137.876 165.975 138.056 166.092 138.205 166.244C138.474 166.576 138.609 166.996 138.583 167.423V168.396H137.624C137.17 168.387 136.717 168.429 136.273 168.519C135.96 168.579 135.661 168.699 135.393 168.871C135.178 169.009 135.009 169.208 134.908 169.443C134.803 169.696 134.75 169.969 134.754 170.244C134.744 170.473 134.783 170.702 134.87 170.915C134.957 171.127 135.088 171.319 135.256 171.476C135.646 171.791 136.141 171.948 136.642 171.916C136.89 171.92 137.138 171.889 137.377 171.823C137.564 171.771 137.742 171.691 137.905 171.586C138.041 171.498 138.16 171.388 138.257 171.26C138.348 171.135 138.427 171.003 138.495 170.864L138.46 170.798ZM137.065 171.264C136.734 171.283 136.406 171.197 136.127 171.018C136.013 170.93 135.922 170.816 135.862 170.685C135.802 170.553 135.775 170.409 135.784 170.266V170.019C135.78 169.834 135.813 169.65 135.881 169.478C135.949 169.319 136.06 169.182 136.202 169.082C136.381 168.966 136.582 168.888 136.792 168.853C137.091 168.797 137.395 168.772 137.698 168.778H138.543V170.006C138.548 170.199 138.507 170.39 138.425 170.565C138.35 170.719 138.238 170.852 138.099 170.952C137.959 171.057 137.801 171.136 137.632 171.185C137.448 171.239 137.257 171.266 137.065 171.264ZM137.698 168.88C137.403 168.875 137.109 168.9 136.818 168.954C136.622 168.987 136.435 169.06 136.268 169.17C136.141 169.255 136.041 169.376 135.982 169.518C135.918 169.677 135.886 169.847 135.89 170.019V170.266C135.881 170.393 135.904 170.522 135.957 170.638C136.01 170.755 136.091 170.857 136.193 170.934C136.456 171.1 136.764 171.179 137.074 171.159C137.255 171.161 137.436 171.138 137.61 171.088C137.768 171.042 137.917 170.969 138.05 170.873C138.175 170.779 138.276 170.656 138.345 170.516C138.42 170.357 138.456 170.182 138.451 170.006V168.88H137.698Z" fill="#F1673A"/>
<path d="M142.328 171.185H143.257V163.23L142.328 163.058V162.618L144.361 162.235V171.185H145.294V171.784H142.328V171.185Z" fill="#F1673A"/>
<path d="M145.343 171.832H142.262V171.132H143.191V163.265L142.262 163.093V162.561L144.401 162.156V171.124H145.329L145.343 171.832ZM142.377 171.731H145.241V171.238H144.308V162.288L142.377 162.653V163.014L143.309 163.19V171.238H142.377V171.731Z" fill="#F1673A"/>
<path d="M149.216 171.929C148.701 171.96 148.193 171.795 147.794 171.467C147.621 171.305 147.486 171.107 147.397 170.888C147.308 170.668 147.268 170.432 147.279 170.195C147.275 169.913 147.328 169.634 147.433 169.372C147.542 169.131 147.716 168.926 147.935 168.778C148.212 168.603 148.52 168.481 148.842 168.418C149.291 168.33 149.748 168.288 150.206 168.294H151.112V167.375C151.138 166.961 151.008 166.553 150.747 166.231C150.602 166.087 150.428 165.977 150.237 165.907C150.046 165.837 149.841 165.809 149.638 165.826C149.448 165.827 149.258 165.843 149.07 165.874C148.917 165.901 148.769 165.952 148.63 166.024V166.05C148.737 166.112 148.834 166.191 148.916 166.284C149.016 166.407 149.065 166.565 149.053 166.724C149.059 166.821 149.045 166.919 149.011 167.011C148.977 167.103 148.924 167.186 148.855 167.256C148.708 167.385 148.517 167.451 148.322 167.441C148.227 167.445 148.131 167.431 148.042 167.399C147.952 167.366 147.869 167.316 147.799 167.252C147.728 167.176 147.675 167.086 147.641 166.988C147.606 166.891 147.593 166.787 147.601 166.684C147.603 166.495 147.659 166.31 147.763 166.152C147.885 165.964 148.045 165.804 148.234 165.685C148.472 165.536 148.732 165.426 149.004 165.36C149.345 165.272 149.696 165.231 150.047 165.236C150.629 165.2 151.203 165.386 151.654 165.756C151.85 165.944 152.003 166.172 152.103 166.425C152.202 166.678 152.246 166.949 152.23 167.221V171.216H153.141V171.687C153.026 171.764 152.9 171.822 152.767 171.858C152.595 171.912 152.415 171.937 152.234 171.933C152.093 171.949 151.949 171.932 151.814 171.886C151.679 171.839 151.556 171.764 151.454 171.664C151.352 171.564 151.273 171.443 151.223 171.309C151.173 171.176 151.153 171.033 151.165 170.89V170.855H151.104C151.037 170.998 150.956 171.134 150.861 171.26C150.762 171.395 150.638 171.509 150.496 171.599C150.329 171.707 150.147 171.789 149.955 171.841C149.714 171.904 149.465 171.934 149.216 171.929ZM149.687 171.212C149.873 171.213 150.058 171.187 150.237 171.137C150.396 171.09 150.545 171.014 150.677 170.912C150.809 170.814 150.916 170.686 150.989 170.538C151.067 170.372 151.105 170.19 151.099 170.006V168.827H150.307C150.012 168.823 149.717 168.848 149.427 168.902C149.223 168.937 149.028 169.013 148.855 169.126C148.721 169.22 148.616 169.35 148.551 169.5C148.486 169.665 148.454 169.842 148.459 170.019V170.266C148.449 170.401 148.473 170.537 148.529 170.661C148.585 170.784 148.672 170.892 148.78 170.974C149.049 171.148 149.367 171.231 149.687 171.212V171.212Z" fill="#F1673A"/>
<path d="M152.261 171.982C152.109 171.992 151.957 171.97 151.813 171.919C151.67 171.867 151.539 171.787 151.429 171.682C151.243 171.481 151.141 171.217 151.143 170.943C151.081 171.063 151.01 171.177 150.932 171.286C150.825 171.424 150.695 171.543 150.549 171.638C150.379 171.748 150.194 171.831 149.999 171.885C149.75 171.954 149.492 171.987 149.233 171.982C148.704 172.011 148.184 171.839 147.776 171.502C147.596 171.334 147.455 171.129 147.363 170.901C147.271 170.673 147.23 170.428 147.244 170.182C147.239 169.894 147.293 169.608 147.402 169.342C147.513 169.088 147.695 168.873 147.926 168.721C148.209 168.543 148.522 168.419 148.85 168.356C149.302 168.264 149.762 168.221 150.223 168.228H151.077V167.348C151.105 166.946 150.979 166.548 150.725 166.235C150.584 166.099 150.415 165.995 150.231 165.929C150.047 165.863 149.851 165.837 149.655 165.852C149.468 165.851 149.281 165.867 149.097 165.901C148.966 165.92 148.839 165.957 148.718 166.011C148.806 166.072 148.887 166.143 148.96 166.222C149.066 166.355 149.119 166.523 149.11 166.693C149.116 166.798 149.101 166.903 149.063 167.002C149.026 167.1 148.969 167.19 148.894 167.265C148.738 167.402 148.534 167.472 148.326 167.463C148.224 167.467 148.122 167.451 148.026 167.415C147.93 167.38 147.842 167.326 147.768 167.256C147.693 167.175 147.636 167.08 147.6 166.976C147.563 166.873 147.549 166.763 147.556 166.653C147.559 166.455 147.617 166.261 147.724 166.094C147.848 165.9 148.015 165.736 148.212 165.615C148.453 165.461 148.718 165.346 148.995 165.276C149.34 165.189 149.696 165.147 150.051 165.153C150.646 165.119 151.231 165.309 151.693 165.685C151.894 165.885 152.05 166.126 152.148 166.392C152.246 166.658 152.284 166.943 152.261 167.225V171.185H153.189V171.735C153.07 171.816 152.939 171.878 152.802 171.92C152.625 171.966 152.443 171.987 152.261 171.982V171.982ZM151.099 170.798H151.244V170.886C151.233 171.021 151.252 171.157 151.299 171.285C151.347 171.412 151.422 171.527 151.519 171.622C151.616 171.717 151.733 171.789 151.861 171.834C151.989 171.879 152.126 171.894 152.261 171.88C152.436 171.882 152.611 171.856 152.78 171.806C152.898 171.771 153.01 171.721 153.114 171.656V171.264H152.181V167.225C152.198 166.961 152.156 166.697 152.059 166.451C151.963 166.204 151.814 165.982 151.622 165.799C151.182 165.438 150.621 165.256 150.051 165.289C149.704 165.286 149.358 165.327 149.022 165.412C148.755 165.478 148.501 165.586 148.269 165.733C148.093 165.847 147.943 165.997 147.829 166.173C147.732 166.325 147.678 166.5 147.675 166.679C147.668 166.776 147.68 166.872 147.712 166.963C147.744 167.054 147.794 167.137 147.86 167.208C147.924 167.269 148 167.317 148.083 167.348C148.167 167.379 148.255 167.393 148.344 167.388C148.526 167.397 148.704 167.336 148.841 167.216C148.905 167.151 148.955 167.073 148.987 166.988C149.019 166.902 149.032 166.81 149.026 166.719C149.035 166.575 148.992 166.433 148.903 166.319C148.822 166.23 148.729 166.155 148.626 166.094H148.604V166.011H148.63C148.775 165.931 148.933 165.879 149.097 165.857C149.287 165.821 149.48 165.804 149.673 165.804C149.885 165.791 150.097 165.823 150.295 165.899C150.493 165.975 150.673 166.092 150.822 166.244C151.091 166.576 151.226 166.996 151.2 167.423V168.396H150.241C149.787 168.387 149.334 168.429 148.89 168.519C148.577 168.579 148.278 168.699 148.01 168.871C147.795 169.009 147.626 169.208 147.526 169.443C147.42 169.696 147.367 169.969 147.372 170.244C147.361 170.473 147.401 170.702 147.487 170.915C147.574 171.127 147.705 171.319 147.873 171.476C148.264 171.791 148.758 171.948 149.259 171.916C149.508 171.92 149.755 171.889 149.994 171.823C150.18 171.772 150.357 171.691 150.518 171.586C150.656 171.5 150.777 171.389 150.874 171.26C150.965 171.135 151.045 171.003 151.112 170.864L151.099 170.798ZM149.704 171.264C149.373 171.283 149.045 171.197 148.767 171.018C148.652 170.93 148.561 170.816 148.501 170.685C148.441 170.553 148.414 170.409 148.423 170.266V170.019C148.419 169.834 148.452 169.65 148.52 169.478C148.588 169.319 148.7 169.182 148.841 169.082C149.02 168.966 149.221 168.888 149.431 168.853C149.73 168.797 150.034 168.772 150.338 168.778H151.182V170.006C151.187 170.199 151.146 170.39 151.064 170.565C150.989 170.719 150.877 170.852 150.738 170.952C150.599 171.059 150.44 171.138 150.271 171.185C150.081 171.241 149.884 171.268 149.686 171.264H149.704ZM150.338 168.88C150.042 168.875 149.748 168.9 149.457 168.954C149.261 168.987 149.074 169.06 148.907 169.17C148.78 169.255 148.68 169.376 148.621 169.518C148.557 169.677 148.525 169.847 148.529 170.019V170.266C148.52 170.393 148.543 170.522 148.596 170.638C148.649 170.755 148.73 170.857 148.832 170.934C149.095 171.101 149.403 171.179 149.713 171.159C149.894 171.161 150.075 171.138 150.25 171.088C150.407 171.042 150.556 170.969 150.69 170.873C150.814 170.779 150.915 170.656 150.984 170.516C151.059 170.357 151.095 170.182 151.09 170.006V168.88H150.338Z" fill="#F1673A"/>
<path d="M159.007 171.185H159.949V163.705H159.007V163.111H162.057V163.705H161.115V171.185H162.057V171.784H159.007V171.185Z" fill="#F1673A"/>
<path d="M162.109 171.832H158.954V171.132H159.896V163.767H158.954V163.067H162.109V163.767H161.167V171.132H162.109V171.832ZM159.055 171.731H162.008V171.238H161.062V163.665H162.008V163.173H159.055V163.665H160.001V171.238H159.055V171.731Z" fill="#F1673A"/>
<path d="M164.291 171.185H165.224V166.235L164.291 166.059V165.619L166.289 165.236V166.345H166.338C166.398 166.207 166.478 166.078 166.575 165.962C166.689 165.823 166.822 165.702 166.971 165.601C167.341 165.352 167.779 165.223 168.225 165.232C168.535 165.201 168.848 165.238 169.142 165.341C169.435 165.445 169.702 165.612 169.924 165.83C170.302 166.354 170.482 166.995 170.435 167.639V171.185H171.363V171.784H168.397V171.185H169.33V167.722C169.367 167.254 169.239 166.787 168.969 166.402C168.825 166.248 168.647 166.128 168.45 166.052C168.252 165.976 168.04 165.945 167.829 165.962C167.646 165.961 167.464 165.986 167.288 166.037C167.114 166.083 166.95 166.161 166.804 166.266C166.661 166.366 166.542 166.497 166.456 166.649C166.365 166.826 166.326 167.026 166.342 167.225V171.185H167.27V171.784H164.304L164.291 171.185Z" fill="#F1673A"/>
<path d="M171.417 171.832H168.336V171.132H169.265V167.722C169.301 167.268 169.178 166.816 168.917 166.442C168.779 166.29 168.608 166.171 168.418 166.095C168.227 166.019 168.022 165.987 167.817 166.002C167.638 166.003 167.461 166.028 167.289 166.077C167.122 166.124 166.965 166.198 166.822 166.297C166.687 166.396 166.573 166.521 166.488 166.666C166.404 166.825 166.362 167.002 166.365 167.181V171.11H167.298V171.81H164.217V171.11H165.15V166.27L164.217 166.094V165.562L166.321 165.157V166.209C166.375 166.107 166.44 166.011 166.514 165.923C166.631 165.778 166.769 165.652 166.923 165.549C167.099 165.434 167.288 165.343 167.487 165.276C167.719 165.203 167.961 165.168 168.204 165.17C168.525 165.136 168.85 165.174 169.155 165.281C169.459 165.388 169.736 165.563 169.964 165.791C170.35 166.323 170.536 166.974 170.488 167.63V171.124H171.417V171.832ZM168.451 171.731H171.315V171.238H170.382V167.639C170.427 167.012 170.251 166.39 169.885 165.879C169.668 165.665 169.407 165.503 169.121 165.401C168.834 165.3 168.529 165.263 168.226 165.294C167.993 165.291 167.761 165.326 167.54 165.399C167.349 165.459 167.168 165.546 167.003 165.659C166.858 165.756 166.728 165.873 166.615 166.006C166.521 166.119 166.444 166.245 166.387 166.38V166.411H166.25V165.307L164.358 165.672V166.033L165.286 166.204V171.251H164.358V171.744H167.218V171.251H166.29V167.225C166.285 167.027 166.332 166.832 166.426 166.658C166.516 166.5 166.639 166.363 166.787 166.257C166.94 166.15 167.109 166.07 167.289 166.02C167.47 165.97 167.656 165.945 167.843 165.945C168.06 165.925 168.279 165.954 168.483 166.03C168.687 166.106 168.872 166.228 169.023 166.385C169.298 166.777 169.43 167.253 169.397 167.731V171.251H168.464L168.451 171.731Z" fill="#F1673A"/>
<path d="M176.024 171.929C175.646 171.935 175.271 171.862 174.924 171.713C174.596 171.566 174.306 171.345 174.079 171.066C173.832 170.755 173.647 170.4 173.533 170.019C173.281 169.077 173.281 168.084 173.533 167.142C173.646 166.761 173.831 166.405 174.079 166.094C174.306 165.816 174.596 165.595 174.924 165.447C175.271 165.299 175.646 165.226 176.024 165.232C176.458 165.21 176.888 165.322 177.256 165.553C177.549 165.747 177.784 166.018 177.934 166.336H177.982V163.23L177.053 163.058V162.618L179.087 162.235V170.934L180.019 171.106V171.546L177.982 171.929V170.838H177.934C177.785 171.154 177.55 171.422 177.256 171.612C176.887 171.84 176.457 171.95 176.024 171.929ZM176.345 171.185C176.548 171.186 176.749 171.156 176.943 171.097C177.13 171.046 177.307 170.964 177.467 170.855C177.618 170.755 177.746 170.623 177.841 170.468C177.937 170.306 177.986 170.12 177.982 169.931V167.225C177.987 167.036 177.938 166.85 177.841 166.688C177.745 166.533 177.618 166.4 177.467 166.297C177.305 166.191 177.129 166.109 176.943 166.055C176.749 165.999 176.547 165.971 176.345 165.971C176.097 165.959 175.849 166.004 175.62 166.101C175.392 166.199 175.188 166.347 175.025 166.534C174.694 166.966 174.527 167.501 174.554 168.044V169.108C174.527 169.651 174.694 170.186 175.025 170.618C175.188 170.807 175.393 170.957 175.624 171.055C175.854 171.153 176.104 171.198 176.354 171.185H176.345Z" fill="#F1673A"/>
<path d="M177.943 171.99V170.956C177.787 171.238 177.565 171.479 177.296 171.656C176.917 171.89 176.477 172.003 176.033 171.982C175.648 171.986 175.266 171.911 174.911 171.762C174.57 171.612 174.269 171.387 174.03 171.102C173.78 170.785 173.591 170.424 173.476 170.037C173.218 169.083 173.218 168.078 173.476 167.124C173.591 166.737 173.78 166.376 174.03 166.059C174.269 165.774 174.57 165.548 174.911 165.399C175.265 165.249 175.648 165.174 176.033 165.179C176.477 165.159 176.918 165.274 177.296 165.509C177.563 165.69 177.785 165.931 177.943 166.213V163.265L177.01 163.093V162.561L179.148 162.156V170.873L180.081 171.049V171.581L177.943 171.99ZM176.024 165.28C175.653 165.274 175.286 165.347 174.946 165.496C174.626 165.638 174.344 165.854 174.123 166.125C173.876 166.429 173.694 166.779 173.586 167.155C173.328 168.088 173.328 169.073 173.586 170.006C173.695 170.381 173.876 170.73 174.119 171.036C174.342 171.306 174.626 171.521 174.946 171.665C175.286 171.812 175.653 171.885 176.024 171.88C176.448 171.9 176.867 171.792 177.23 171.572C177.515 171.386 177.742 171.124 177.885 170.816V170.785H178.017V171.867L179.949 171.502V171.141L179.021 170.97V162.288L177.089 162.653V163.014L178.017 163.19V166.385H177.885V166.354C177.738 166.047 177.512 165.784 177.23 165.593C176.869 165.369 176.448 165.26 176.024 165.28V165.28ZM176.345 171.238C176.088 171.251 175.83 171.205 175.593 171.104C175.356 171.002 175.145 170.848 174.977 170.653C174.638 170.213 174.468 169.667 174.497 169.113V168.048C174.468 167.494 174.638 166.948 174.977 166.508C175.145 166.313 175.356 166.158 175.593 166.057C175.83 165.956 176.088 165.91 176.345 165.923C176.552 165.924 176.758 165.953 176.957 166.011C177.149 166.067 177.331 166.152 177.498 166.262C177.656 166.366 177.788 166.504 177.885 166.666C177.986 166.837 178.038 167.032 178.035 167.23V169.931C178.038 170.129 177.986 170.324 177.885 170.494C177.788 170.657 177.656 170.795 177.498 170.899C177.331 171.009 177.149 171.093 176.957 171.15C176.761 171.206 176.558 171.236 176.354 171.238H176.345ZM176.345 166.024C176.103 166.011 175.86 166.054 175.637 166.149C175.413 166.245 175.215 166.39 175.056 166.574C174.739 166.998 174.583 167.52 174.616 168.048V169.113C174.583 169.641 174.739 170.163 175.056 170.587C175.215 170.77 175.414 170.915 175.637 171.009C175.861 171.104 176.103 171.146 176.345 171.132C176.542 171.133 176.738 171.105 176.926 171.049C177.108 170.996 177.281 170.918 177.441 170.816C177.584 170.717 177.706 170.59 177.797 170.442C177.888 170.287 177.935 170.11 177.934 169.931V167.225C177.935 167.046 177.888 166.869 177.797 166.715C177.706 166.567 177.584 166.439 177.441 166.341C177.283 166.235 177.109 166.156 176.926 166.108C176.74 166.053 176.548 166.025 176.354 166.024H176.345Z" fill="#F1673A"/>
<path d="M184.98 171.929C184.554 171.935 184.131 171.852 183.739 171.687C183.376 171.534 183.05 171.304 182.784 171.014C182.509 170.707 182.3 170.348 182.168 169.958C181.88 169.062 181.88 168.099 182.168 167.203C182.3 166.813 182.509 166.454 182.784 166.147C183.049 165.855 183.375 165.626 183.739 165.474C184.534 165.151 185.425 165.151 186.221 165.474C186.584 165.626 186.91 165.855 187.175 166.147C187.45 166.454 187.66 166.813 187.792 167.203C188.079 168.099 188.079 169.062 187.792 169.958C187.66 170.348 187.45 170.707 187.175 171.014C186.909 171.304 186.584 171.534 186.221 171.687C185.828 171.852 185.406 171.935 184.98 171.929V171.929ZM184.98 171.286C185.255 171.293 185.528 171.239 185.781 171.128C185.998 171.03 186.187 170.878 186.331 170.688C186.476 170.499 186.583 170.284 186.647 170.054C186.719 169.798 186.755 169.533 186.753 169.267V167.85C186.755 167.584 186.719 167.319 186.647 167.062C186.583 166.833 186.476 166.618 186.331 166.429C186.185 166.24 185.997 166.089 185.781 165.989C185.265 165.783 184.69 165.783 184.174 165.989C183.96 166.09 183.773 166.241 183.629 166.429C183.483 166.618 183.376 166.833 183.312 167.062C183.24 167.319 183.204 167.584 183.206 167.85V169.267C183.204 169.533 183.24 169.798 183.312 170.054C183.376 170.284 183.483 170.499 183.629 170.688C183.772 170.877 183.959 171.028 184.174 171.128C184.428 171.24 184.703 171.294 184.98 171.286V171.286Z" fill="#F1673A"/>
<path d="M184.979 171.982C184.545 171.987 184.116 171.903 183.716 171.735C183.348 171.576 183.016 171.343 182.743 171.049C182.464 170.737 182.252 170.372 182.118 169.975C181.825 169.068 181.825 168.092 182.118 167.186C182.252 166.789 182.464 166.424 182.743 166.112C183.016 165.818 183.348 165.584 183.716 165.425C184.526 165.097 185.432 165.097 186.242 165.425C186.61 165.584 186.941 165.818 187.214 166.112C187.493 166.424 187.706 166.789 187.839 167.186C188.133 168.092 188.133 169.068 187.839 169.975C187.706 170.372 187.493 170.737 187.214 171.049C186.941 171.343 186.61 171.576 186.242 171.735C185.842 171.903 185.412 171.987 184.979 171.982V171.982ZM184.979 165.28C184.56 165.274 184.145 165.355 183.76 165.518C183.404 165.67 183.084 165.896 182.823 166.182C182.551 166.483 182.344 166.837 182.215 167.221C181.934 168.105 181.934 169.055 182.215 169.94C182.345 170.324 182.552 170.677 182.823 170.978C183.084 171.264 183.404 171.491 183.76 171.643C184.542 171.96 185.416 171.96 186.198 171.643C186.555 171.49 186.876 171.263 187.14 170.978C187.407 170.675 187.612 170.322 187.742 169.94C188.024 169.055 188.024 168.105 187.742 167.221C187.613 166.838 187.408 166.485 187.14 166.182C186.876 165.897 186.555 165.671 186.198 165.518C185.812 165.355 185.397 165.274 184.979 165.28V165.28ZM184.979 171.335C184.695 171.342 184.413 171.288 184.152 171.176C183.931 171.076 183.736 170.925 183.584 170.736C183.436 170.542 183.327 170.321 183.263 170.085C183.187 169.825 183.15 169.555 183.153 169.284V167.868C183.15 167.597 183.187 167.327 183.263 167.067C183.326 166.831 183.435 166.61 183.584 166.415C183.735 166.226 183.93 166.075 184.152 165.975C184.412 165.862 184.695 165.807 184.979 165.813C185.262 165.808 185.542 165.863 185.802 165.975C186.025 166.073 186.222 166.224 186.374 166.415C186.522 166.61 186.632 166.831 186.699 167.067C186.771 167.328 186.807 167.597 186.805 167.868V169.284C186.807 169.555 186.771 169.824 186.699 170.085C186.631 170.32 186.521 170.541 186.374 170.736C186.222 170.927 186.025 171.078 185.802 171.176C185.542 171.287 185.261 171.341 184.979 171.335V171.335ZM184.979 165.927C184.71 165.919 184.443 165.97 184.196 166.077C183.989 166.169 183.808 166.309 183.667 166.486C183.526 166.668 183.421 166.875 183.359 167.098C183.287 167.349 183.252 167.61 183.254 167.872V169.289C183.252 169.551 183.288 169.811 183.359 170.063C183.421 170.285 183.526 170.493 183.667 170.675C183.808 170.851 183.989 170.992 184.196 171.084C184.697 171.284 185.256 171.284 185.758 171.084C185.966 170.993 186.149 170.853 186.29 170.675C186.432 170.493 186.537 170.285 186.598 170.063C186.67 169.811 186.705 169.551 186.704 169.289V167.872C186.705 167.61 186.67 167.349 186.598 167.098C186.537 166.875 186.432 166.668 186.29 166.486C186.149 166.308 185.966 166.168 185.758 166.077C185.512 165.971 185.246 165.92 184.979 165.927V165.927Z" fill="#F1673A"/>
<path d="M190.105 171.185H191.034V166.235L190.105 166.059V165.619L192.103 165.236V166.345H192.152C192.21 166.207 192.289 166.078 192.385 165.962C192.502 165.824 192.636 165.703 192.785 165.601C192.955 165.487 193.141 165.396 193.335 165.333C193.562 165.264 193.798 165.23 194.035 165.232C194.346 165.2 194.659 165.237 194.954 165.341C195.248 165.444 195.516 165.611 195.738 165.83C196.114 166.355 196.293 166.995 196.244 167.639V171.185H197.177V171.784H194.211V171.185H195.14V167.722C195.175 167.254 195.05 166.789 194.783 166.402C194.638 166.248 194.46 166.128 194.261 166.052C194.063 165.976 193.851 165.945 193.639 165.962C193.458 165.961 193.277 165.986 193.102 166.037C192.928 166.082 192.763 166.159 192.618 166.266C192.474 166.364 192.355 166.496 192.271 166.649C192.18 166.814 192.134 167.001 192.139 167.19V171.15H193.071V171.748H190.105V171.185Z" fill="#F1673A"/>
<path d="M197.244 171.832H194.164V171.132H195.097V167.722C195.131 167.268 195.008 166.817 194.749 166.442C194.61 166.29 194.439 166.171 194.248 166.095C194.056 166.019 193.85 165.987 193.645 166.002C193.467 166.003 193.291 166.028 193.121 166.077C192.953 166.124 192.794 166.198 192.65 166.297C192.516 166.396 192.403 166.522 192.32 166.666C192.234 166.824 192.191 167.002 192.197 167.181V171.11H193.125V171.81H190.045V171.11H190.987V166.27L190.058 166.094V165.562L192.157 165.157V166.209C192.212 166.107 192.277 166.011 192.351 165.923C192.469 165.779 192.607 165.653 192.76 165.549C192.936 165.435 193.125 165.344 193.323 165.276C193.555 165.203 193.797 165.168 194.041 165.17C194.362 165.136 194.686 165.174 194.991 165.282C195.295 165.389 195.572 165.563 195.801 165.791C196.183 166.324 196.367 166.975 196.32 167.63V171.124H197.253L197.244 171.832ZM194.278 171.731H197.139V171.238H196.21V167.639C196.254 167.012 196.079 166.39 195.713 165.879C195.495 165.666 195.233 165.503 194.946 165.402C194.659 165.301 194.353 165.264 194.049 165.294C193.818 165.291 193.587 165.327 193.367 165.399C193.175 165.459 192.993 165.546 192.826 165.659C192.682 165.755 192.553 165.872 192.443 166.006C192.349 166.119 192.271 166.245 192.214 166.38V166.411H192.078V165.307L190.181 165.672V166.033L191.114 166.204V171.251H190.181V171.744H193.046V171.251H192.113V167.225C192.11 167.027 192.157 166.832 192.25 166.658C192.342 166.5 192.467 166.364 192.615 166.257C192.766 166.151 192.934 166.071 193.112 166.02C193.293 165.971 193.479 165.946 193.667 165.945C193.884 165.925 194.104 165.955 194.308 166.031C194.513 166.107 194.698 166.228 194.85 166.385C195.124 166.778 195.255 167.253 195.22 167.731V171.251H194.292L194.278 171.731Z" fill="#F1673A"/>
<path d="M202.107 171.929C201.672 171.937 201.241 171.854 200.84 171.687C200.477 171.536 200.155 171.302 199.898 171.005C199.63 170.697 199.43 170.335 199.313 169.944C199.176 169.503 199.109 169.043 199.115 168.58C199.112 168.118 199.191 167.66 199.348 167.225C199.485 166.837 199.692 166.478 199.959 166.165C200.215 165.871 200.532 165.637 200.888 165.478C201.254 165.314 201.652 165.231 202.054 165.236C202.451 165.229 202.845 165.304 203.212 165.456C203.548 165.598 203.848 165.813 204.092 166.086C204.334 166.367 204.519 166.693 204.637 167.045C204.767 167.438 204.831 167.85 204.826 168.264V168.545H200.36V168.858C200.327 169.446 200.515 170.025 200.888 170.481C201.064 170.679 201.282 170.834 201.525 170.938C201.769 171.041 202.032 171.09 202.296 171.08C202.699 171.111 203.102 171.02 203.453 170.818C203.803 170.617 204.084 170.313 204.259 169.949L204.699 170.222C204.617 170.449 204.503 170.664 204.36 170.86C204.209 171.068 204.027 171.25 203.819 171.401C203.592 171.564 203.341 171.692 203.075 171.779C202.763 171.884 202.436 171.935 202.107 171.929V171.929ZM200.347 167.969H203.647V167.832C203.649 167.568 203.618 167.305 203.555 167.049C203.501 166.824 203.404 166.612 203.269 166.424C203.142 166.246 202.972 166.103 202.776 166.006C202.547 165.905 202.3 165.856 202.05 165.861C201.796 165.854 201.544 165.902 201.31 166.002C201.103 166.093 200.921 166.232 200.778 166.407C200.629 166.586 200.518 166.794 200.452 167.018C200.38 167.27 200.344 167.531 200.347 167.793V167.969Z" fill="#F1673A"/>
<path d="M202.106 171.982C201.664 171.988 201.225 171.904 200.817 171.735C200.449 171.578 200.121 171.341 199.857 171.04C199.587 170.725 199.385 170.358 199.263 169.962C199.126 169.514 199.057 169.049 199.061 168.58C199.057 168.111 199.134 167.645 199.29 167.203C199.43 166.808 199.641 166.443 199.915 166.125C200.175 165.827 200.496 165.589 200.856 165.425C201.23 165.259 201.635 165.175 202.045 165.179C202.449 165.172 202.851 165.25 203.224 165.408C203.562 165.552 203.862 165.77 204.104 166.046C204.352 166.332 204.542 166.664 204.663 167.023C204.794 167.422 204.86 167.839 204.857 168.259V168.607H200.39V168.866C200.357 169.442 200.541 170.008 200.905 170.455C201.076 170.647 201.287 170.799 201.524 170.899C201.76 171 202.016 171.046 202.273 171.036C202.699 171.058 203.122 170.952 203.488 170.732C203.786 170.531 204.027 170.257 204.188 169.936L204.214 169.883L204.733 170.208V170.248C204.649 170.48 204.531 170.699 204.386 170.899C204.234 171.112 204.048 171.298 203.836 171.449C203.606 171.618 203.35 171.749 203.079 171.836C202.765 171.938 202.436 171.987 202.106 171.982ZM202.045 165.28C201.649 165.276 201.257 165.357 200.896 165.518C200.549 165.677 200.24 165.908 199.989 166.195C199.725 166.502 199.521 166.856 199.387 167.238C199.236 167.67 199.162 168.124 199.167 168.58C199.163 169.038 199.228 169.493 199.36 169.931C199.481 170.314 199.677 170.668 199.937 170.974C200.19 171.264 200.506 171.493 200.861 171.643C201.256 171.805 201.679 171.886 202.106 171.88C202.42 171.884 202.732 171.836 203.03 171.74C203.292 171.654 203.539 171.528 203.761 171.366C203.965 171.221 204.144 171.042 204.289 170.838C204.421 170.657 204.529 170.461 204.61 170.252L204.258 170.032C204.076 170.393 203.79 170.691 203.437 170.888C203.084 171.085 202.68 171.171 202.278 171.137C202.006 171.147 201.736 171.097 201.486 170.992C201.236 170.886 201.012 170.727 200.83 170.525C200.452 170.058 200.261 169.467 200.293 168.866V168.506H204.76V168.259C204.762 167.851 204.698 167.445 204.571 167.058C204.453 166.711 204.271 166.39 204.034 166.112C203.799 165.848 203.509 165.639 203.184 165.5C202.823 165.35 202.435 165.275 202.045 165.28ZM203.695 168.013H200.293V167.784C200.291 167.518 200.326 167.252 200.399 166.996C200.466 166.764 200.579 166.549 200.733 166.363C200.882 166.183 201.07 166.04 201.283 165.945C201.524 165.843 201.783 165.794 202.045 165.799C202.302 165.794 202.558 165.847 202.793 165.953C202.999 166.054 203.176 166.206 203.308 166.393C203.444 166.588 203.544 166.806 203.602 167.036C203.666 167.297 203.697 167.564 203.695 167.832V168.013ZM200.394 167.907H203.594V167.824C203.596 167.564 203.565 167.305 203.501 167.054C203.447 166.836 203.353 166.63 203.224 166.446C203.101 166.274 202.935 166.137 202.744 166.046C202.525 165.944 202.286 165.894 202.045 165.901C201.798 165.896 201.554 165.944 201.327 166.041C201.127 166.128 200.951 166.26 200.812 166.429C200.668 166.605 200.56 166.808 200.496 167.027C200.427 167.273 200.393 167.528 200.394 167.784V167.907Z" fill="#F1673A"/>
<path d="M209.499 171.929C209.313 171.93 209.126 171.908 208.945 171.863C208.784 171.821 208.627 171.762 208.479 171.687C208.35 171.622 208.23 171.541 208.122 171.445C208.031 171.365 207.956 171.267 207.902 171.159H207.849V171.784H207.044V169.865H207.849V170.112C207.843 170.268 207.87 170.424 207.926 170.57C207.983 170.716 208.069 170.849 208.179 170.961C208.493 171.212 208.893 171.331 209.293 171.291C209.672 171.312 210.05 171.233 210.388 171.062C210.52 170.979 210.626 170.862 210.695 170.723C210.764 170.584 210.793 170.429 210.78 170.274C210.784 170.147 210.762 170.02 210.716 169.902C210.67 169.783 210.6 169.675 210.512 169.584C210.299 169.38 210.028 169.248 209.737 169.205L208.967 169.042C208.438 168.959 207.945 168.725 207.546 168.369C207.383 168.196 207.257 167.992 207.175 167.769C207.094 167.546 207.058 167.308 207.07 167.071C207.061 166.82 207.109 166.57 207.212 166.341C207.315 166.112 207.47 165.91 207.664 165.751C208.129 165.406 208.701 165.234 209.279 165.267C209.614 165.255 209.947 165.315 210.256 165.443C210.486 165.524 210.676 165.689 210.789 165.905H210.837V165.377H211.647V167.313H210.837V166.829C210.846 166.692 210.819 166.555 210.761 166.43C210.702 166.306 210.614 166.198 210.503 166.116C210.184 165.932 209.818 165.848 209.451 165.874C209.105 165.854 208.76 165.937 208.461 166.112C208.344 166.193 208.25 166.302 208.188 166.43C208.126 166.559 208.099 166.7 208.109 166.842C208.106 166.974 208.129 167.104 208.179 167.226C208.228 167.348 208.302 167.458 208.395 167.551C208.608 167.752 208.876 167.886 209.165 167.934L209.882 168.083C210.425 168.17 210.934 168.404 211.352 168.761C211.521 168.928 211.652 169.129 211.737 169.35C211.821 169.572 211.858 169.809 211.845 170.046C211.848 170.3 211.792 170.551 211.682 170.78C211.58 171.009 211.43 171.213 211.242 171.379C211.027 171.557 210.781 171.694 210.516 171.784C210.188 171.889 209.844 171.938 209.499 171.929V171.929Z" fill="#F1673A"/>
<path d="M209.499 171.982C209.307 171.983 209.116 171.96 208.931 171.911C208.765 171.871 208.604 171.812 208.451 171.735C208.321 171.667 208.2 171.583 208.091 171.484C208.018 171.421 207.954 171.349 207.901 171.269V171.832H206.99V169.795H207.901V170.094C207.896 170.244 207.921 170.393 207.975 170.533C208.028 170.673 208.11 170.8 208.214 170.908C208.52 171.146 208.906 171.258 209.292 171.22C209.661 171.24 210.03 171.164 210.361 171C210.486 170.923 210.586 170.812 210.65 170.681C210.715 170.549 210.741 170.403 210.727 170.257C210.733 170.014 210.643 169.778 210.476 169.601C210.269 169.407 210.008 169.281 209.728 169.24L208.958 169.078C208.419 168.991 207.916 168.751 207.51 168.387C207.344 168.211 207.214 168.003 207.13 167.777C207.045 167.55 207.007 167.309 207.017 167.067C207.005 166.804 207.055 166.543 207.162 166.303C207.269 166.063 207.43 165.852 207.633 165.685C208.108 165.336 208.69 165.162 209.279 165.192C209.621 165.18 209.962 165.244 210.278 165.377C210.476 165.462 210.646 165.602 210.766 165.782V165.342H211.668V167.379H210.788V166.829C210.797 166.7 210.772 166.571 210.717 166.454C210.661 166.337 210.577 166.236 210.471 166.16C210.163 165.981 209.806 165.899 209.45 165.927C209.116 165.907 208.782 165.985 208.491 166.152C208.38 166.227 208.291 166.331 208.233 166.452C208.175 166.574 208.15 166.708 208.161 166.842C208.157 166.967 208.179 167.091 208.225 167.207C208.272 167.323 208.341 167.428 208.429 167.516C208.637 167.708 208.895 167.836 209.173 167.885L209.895 168.035C210.445 168.124 210.961 168.362 211.387 168.721C211.558 168.894 211.693 169.1 211.78 169.328C211.868 169.555 211.908 169.798 211.897 170.041C211.898 170.303 211.841 170.561 211.73 170.798C211.617 171.035 211.455 171.245 211.255 171.414C211.036 171.596 210.785 171.737 210.515 171.828C210.187 171.934 209.844 171.986 209.499 171.982ZM207.8 171.102H207.932V171.128C207.987 171.23 208.059 171.322 208.143 171.401C208.248 171.492 208.363 171.571 208.487 171.634C208.628 171.704 208.775 171.762 208.927 171.806C209.104 171.851 209.286 171.873 209.468 171.872C209.794 171.876 210.118 171.825 210.427 171.722C210.685 171.636 210.925 171.503 211.136 171.33C211.321 171.17 211.471 170.972 211.576 170.75C211.679 170.526 211.732 170.283 211.73 170.037C211.743 169.807 211.707 169.577 211.625 169.362C211.543 169.146 211.417 168.951 211.255 168.787C210.842 168.441 210.343 168.213 209.811 168.127L209.09 167.978C208.792 167.925 208.516 167.786 208.297 167.577C208.198 167.481 208.12 167.365 208.068 167.237C208.016 167.109 207.99 166.972 207.994 166.834C207.985 166.683 208.015 166.532 208.082 166.397C208.148 166.261 208.248 166.145 208.372 166.059C208.68 165.879 209.033 165.793 209.389 165.813C209.767 165.786 210.145 165.875 210.471 166.068C210.588 166.154 210.682 166.268 210.744 166.399C210.806 166.531 210.835 166.675 210.828 166.82V167.26H211.532V165.426H210.828V165.936H210.691V165.901C210.594 165.698 210.422 165.541 210.212 165.461C209.908 165.335 209.581 165.275 209.252 165.285C208.685 165.254 208.125 165.422 207.668 165.76C207.475 165.919 207.323 166.122 207.223 166.351C207.123 166.581 207.078 166.83 207.092 167.08C207.08 167.31 207.115 167.541 207.195 167.757C207.276 167.974 207.399 168.171 207.558 168.338C207.948 168.691 208.433 168.922 208.953 169.003L209.719 169.166C210.022 169.209 210.303 169.346 210.524 169.557C210.71 169.752 210.812 170.014 210.806 170.283C210.821 170.447 210.79 170.612 210.716 170.759C210.642 170.906 210.528 171.029 210.388 171.115C210.04 171.289 209.654 171.37 209.266 171.352C208.852 171.392 208.44 171.267 208.117 171.005C208.003 170.889 207.913 170.752 207.854 170.6C207.795 170.449 207.768 170.287 207.774 170.125V169.927H207.07V171.762H207.774L207.8 171.102Z" fill="#F1673A"/>
<path d="M214.045 171.185H214.973V166.235L214.045 166.059V165.619L216.078 165.236V171.185H217.011V171.784H214.045V171.185ZM215.519 163.938C215.423 163.944 215.328 163.93 215.238 163.895C215.148 163.861 215.067 163.808 215 163.74C214.876 163.61 214.808 163.436 214.811 163.256V163.181C214.808 163.002 214.876 162.828 215 162.698C215.067 162.629 215.148 162.577 215.238 162.542C215.328 162.508 215.423 162.494 215.519 162.499C215.612 162.492 215.705 162.504 215.793 162.535C215.88 162.567 215.96 162.616 216.027 162.681C216.094 162.745 216.147 162.823 216.181 162.91C216.216 162.996 216.232 163.089 216.227 163.181V163.265C216.232 163.358 216.216 163.451 216.181 163.537C216.147 163.623 216.094 163.701 216.027 163.766C215.96 163.83 215.88 163.88 215.793 163.911C215.705 163.942 215.612 163.955 215.519 163.947V163.938Z" fill="#F1673A"/>
<path d="M217.06 171.832H213.979V171.132H214.908V166.292L213.979 166.116V165.584L216.118 165.179V171.146H217.046L217.06 171.832ZM214.094 171.731H216.95V171.238H216.017V165.293L214.085 165.659V166.019L215.018 166.191V171.238H214.085L214.094 171.731ZM215.519 163.991C215.416 163.997 215.313 163.981 215.217 163.944C215.12 163.906 215.033 163.849 214.96 163.775C214.826 163.639 214.751 163.456 214.749 163.265V163.19C214.741 163.086 214.755 162.981 214.79 162.882C214.824 162.783 214.879 162.692 214.95 162.615C215.021 162.538 215.108 162.477 215.204 162.435C215.3 162.393 215.403 162.371 215.508 162.371C215.613 162.371 215.717 162.393 215.813 162.435C215.909 162.477 215.995 162.538 216.067 162.615C216.138 162.692 216.193 162.783 216.227 162.882C216.262 162.981 216.275 163.086 216.267 163.19V163.265C216.27 163.458 216.198 163.644 216.065 163.784C215.993 163.855 215.908 163.91 215.814 163.945C215.72 163.981 215.62 163.996 215.519 163.991V163.991ZM215.519 162.552C215.43 162.546 215.341 162.559 215.258 162.59C215.174 162.621 215.098 162.67 215.035 162.733C214.924 162.852 214.862 163.009 214.864 163.173V163.265C214.864 163.44 214.933 163.608 215.057 163.732C215.181 163.856 215.349 163.925 215.524 163.925C215.699 163.925 215.867 163.856 215.991 163.732C216.114 163.608 216.184 163.44 216.184 163.265V163.19C216.185 163.027 216.124 162.869 216.012 162.75C215.949 162.684 215.872 162.632 215.787 162.598C215.702 162.564 215.611 162.548 215.519 162.552Z" fill="#F1673A"/>
<path d="M220.933 171.929C220.418 171.96 219.91 171.795 219.511 171.467C219.338 171.305 219.203 171.107 219.114 170.888C219.025 170.668 218.985 170.432 218.996 170.195C218.99 169.913 219.042 169.633 219.15 169.372C219.259 169.131 219.433 168.926 219.652 168.778C219.929 168.603 220.237 168.481 220.559 168.418C221.008 168.33 221.465 168.288 221.923 168.294H222.829V167.375C222.855 166.961 222.725 166.553 222.464 166.231C222.319 166.088 222.145 165.977 221.954 165.907C221.762 165.838 221.558 165.81 221.355 165.826C221.165 165.827 220.975 165.843 220.787 165.874C220.634 165.901 220.485 165.952 220.347 166.024V166.05C220.454 166.114 220.55 166.192 220.633 166.284C220.733 166.407 220.782 166.565 220.77 166.724C220.776 166.821 220.762 166.919 220.728 167.011C220.694 167.103 220.641 167.186 220.572 167.256C220.425 167.385 220.234 167.451 220.039 167.441C219.944 167.445 219.848 167.431 219.758 167.399C219.669 167.366 219.586 167.316 219.516 167.252C219.445 167.176 219.392 167.086 219.357 166.988C219.323 166.891 219.31 166.787 219.318 166.684C219.32 166.495 219.376 166.31 219.48 166.152C219.602 165.964 219.762 165.804 219.951 165.685C220.189 165.536 220.449 165.426 220.721 165.36C221.062 165.272 221.413 165.231 221.764 165.236C222.346 165.2 222.92 165.386 223.371 165.756C223.567 165.944 223.72 166.172 223.82 166.425C223.919 166.678 223.963 166.949 223.947 167.221V171.216H224.871V171.687C224.756 171.764 224.63 171.822 224.497 171.858C224.325 171.912 224.145 171.937 223.965 171.933C223.823 171.949 223.679 171.932 223.544 171.886C223.409 171.839 223.286 171.764 223.184 171.664C223.082 171.564 223.003 171.443 222.953 171.309C222.903 171.176 222.883 171.033 222.895 170.89V170.855H222.834C222.767 170.998 222.686 171.134 222.592 171.26C222.492 171.395 222.368 171.509 222.226 171.599C222.06 171.707 221.877 171.789 221.685 171.841C221.44 171.905 221.186 171.935 220.933 171.929V171.929ZM221.403 171.212C221.589 171.213 221.775 171.187 221.954 171.137C222.113 171.09 222.262 171.014 222.394 170.912C222.526 170.814 222.633 170.686 222.706 170.538C222.784 170.372 222.822 170.19 222.816 170.006V168.827H222.024C221.729 168.823 221.434 168.848 221.144 168.902C220.94 168.937 220.745 169.013 220.572 169.126C220.438 169.22 220.333 169.35 220.268 169.5C220.203 169.665 220.171 169.842 220.176 170.019V170.266C220.166 170.401 220.19 170.537 220.246 170.661C220.302 170.784 220.389 170.892 220.497 170.974C220.766 171.148 221.084 171.231 221.403 171.212V171.212Z" fill="#F1673A"/>
<path d="M223.959 171.982C223.807 171.992 223.655 171.97 223.512 171.919C223.369 171.867 223.238 171.787 223.127 171.682C222.942 171.481 222.839 171.217 222.841 170.943C222.779 171.063 222.709 171.177 222.63 171.286C222.523 171.424 222.394 171.543 222.247 171.638C222.078 171.748 221.892 171.831 221.697 171.885C221.448 171.954 221.19 171.987 220.932 171.982C220.403 172.011 219.883 171.839 219.475 171.502C219.295 171.334 219.154 171.129 219.062 170.901C218.97 170.673 218.929 170.428 218.942 170.182C218.938 169.894 218.992 169.608 219.101 169.342C219.211 169.088 219.393 168.873 219.625 168.721C219.907 168.543 220.221 168.419 220.549 168.356C221 168.264 221.461 168.221 221.922 168.228H222.775V167.348C222.801 166.946 222.675 166.549 222.423 166.235C222.282 166.099 222.114 165.995 221.93 165.929C221.745 165.863 221.549 165.837 221.354 165.852C221.167 165.851 220.979 165.867 220.795 165.901C220.665 165.92 220.537 165.957 220.417 166.011C220.505 166.072 220.586 166.143 220.659 166.222C220.765 166.355 220.818 166.523 220.808 166.693C220.815 166.798 220.799 166.903 220.762 167.002C220.725 167.1 220.667 167.19 220.593 167.265C220.436 167.402 220.233 167.472 220.025 167.463C219.923 167.467 219.821 167.451 219.725 167.415C219.629 167.38 219.541 167.326 219.466 167.256C219.392 167.175 219.335 167.08 219.298 166.976C219.262 166.873 219.247 166.763 219.255 166.653C219.258 166.455 219.316 166.261 219.422 166.094C219.547 165.9 219.714 165.736 219.911 165.615C220.151 165.459 220.416 165.345 220.694 165.276C221.039 165.189 221.394 165.147 221.75 165.153C222.344 165.119 222.93 165.309 223.391 165.685C223.598 165.882 223.759 166.122 223.863 166.388C223.966 166.654 224.01 166.94 223.99 167.225V171.185H224.918V171.735C224.799 171.816 224.669 171.878 224.531 171.92C224.345 171.969 224.152 171.99 223.959 171.982V171.982ZM222.797 170.798H222.943V170.886C222.932 171.021 222.95 171.157 222.998 171.285C223.045 171.412 223.12 171.527 223.217 171.622C223.314 171.717 223.431 171.789 223.559 171.834C223.688 171.879 223.824 171.894 223.959 171.88C224.135 171.882 224.31 171.856 224.478 171.806C224.596 171.771 224.709 171.721 224.813 171.656V171.264H223.88V167.225C223.896 166.961 223.855 166.697 223.758 166.451C223.661 166.204 223.512 165.982 223.321 165.799C222.88 165.438 222.319 165.256 221.75 165.289C221.403 165.286 221.057 165.327 220.72 165.412C220.454 165.478 220.2 165.586 219.968 165.733C219.792 165.847 219.642 165.997 219.528 166.173C219.43 166.325 219.377 166.5 219.374 166.679C219.366 166.776 219.379 166.872 219.411 166.963C219.443 167.054 219.493 167.137 219.559 167.208C219.623 167.269 219.698 167.317 219.782 167.348C219.865 167.379 219.954 167.393 220.043 167.388C220.224 167.397 220.403 167.336 220.54 167.216C220.604 167.151 220.654 167.073 220.686 166.988C220.718 166.902 220.731 166.81 220.725 166.719C220.734 166.575 220.69 166.433 220.602 166.319C220.521 166.23 220.428 166.155 220.324 166.094H220.302V166.011H220.329C220.473 165.931 220.632 165.879 220.795 165.857C220.985 165.821 221.178 165.804 221.372 165.804C221.583 165.791 221.796 165.823 221.994 165.899C222.192 165.975 222.372 166.092 222.52 166.244C222.79 166.576 222.925 166.996 222.899 167.423V168.396H221.939C221.486 168.387 221.033 168.429 220.588 168.519C220.275 168.579 219.977 168.699 219.708 168.871C219.494 169.009 219.325 169.208 219.224 169.443C219.118 169.696 219.066 169.969 219.07 170.244C219.06 170.473 219.099 170.702 219.186 170.915C219.272 171.127 219.404 171.319 219.572 171.476C219.962 171.791 220.457 171.948 220.958 171.916C221.206 171.92 221.454 171.889 221.693 171.823C221.879 171.772 222.055 171.691 222.217 171.586C222.354 171.5 222.475 171.389 222.573 171.26C222.664 171.135 222.743 171.003 222.811 170.864L222.797 170.798ZM221.402 171.264C221.072 171.283 220.744 171.197 220.465 171.018C220.351 170.93 220.259 170.816 220.2 170.685C220.14 170.553 220.113 170.409 220.122 170.266V170.019C220.117 169.834 220.15 169.65 220.219 169.478C220.287 169.319 220.398 169.182 220.54 169.082C220.719 168.966 220.919 168.888 221.13 168.853C221.428 168.797 221.732 168.772 222.036 168.778H222.881V170.006C222.886 170.199 222.845 170.39 222.762 170.565C222.688 170.719 222.576 170.852 222.437 170.952C222.297 171.059 222.139 171.138 221.97 171.185C221.786 171.239 221.594 171.266 221.402 171.264V171.264ZM222.036 168.88C221.741 168.876 221.446 168.901 221.156 168.954C220.96 168.987 220.772 169.06 220.606 169.17C220.478 169.255 220.379 169.376 220.32 169.518C220.255 169.677 220.224 169.847 220.227 170.019V170.266C220.218 170.393 220.241 170.522 220.294 170.638C220.347 170.755 220.429 170.857 220.531 170.934C220.793 171.101 221.101 171.179 221.411 171.159C221.593 171.161 221.773 171.138 221.948 171.088C222.106 171.042 222.255 170.969 222.388 170.873C222.513 170.779 222.614 170.656 222.683 170.516C222.757 170.357 222.793 170.182 222.789 170.006V168.88H222.036Z" fill="#F1673A"/>
</g>
<defs>
<filter id="filter0_ddd" x="0.89145" y="0.998169" width="340.721" height="236.7" filterUnits="userSpaceOnUse" color-interpolation-filters="sRGB">
<feFlood flood-opacity="0" result="BackgroundImageFix"/>
<feColorMatrix in="SourceAlpha" type="matrix" values="0 0 0 0 0 0 0 0 0 0 0 0 0 0 0 0 0 0 127 0"/>
<feOffset dy="4.99519"/>
<feGaussianBlur stdDeviation="1.1069"/>
<feColorMatrix type="matrix" values="0 0 0 0 0 0 0 0 0 0 0 0 0 0 0 0 0 0 0.030926 0"/>
<feBlend mode="normal" in2="BackgroundImageFix" result="effect1_dropShadow"/>
<feColorMatrix in="SourceAlpha" type="matrix" values="0 0 0 0 0 0 0 0 0 0 0 0 0 0 0 0 0 0 127 0"/>
<feOffset dy="10.0259"/>
<feGaussianBlur stdDeviation="2.66004"/>
<feColorMatrix type="matrix" values="0 0 0 0 0 0 0 0 0 0 0 0 0 0 0 0 0 0 0.0444282 0"/>
<feBlend mode="normal" in2="effect1_dropShadow" result="effect2_dropShadow"/>
<feColorMatrix in="SourceAlpha" type="matrix" values="0 0 0 0 0 0 0 0 0 0 0 0 0 0 0 0 0 0 127 0"/>
<feOffset dy="15.6141"/>
<feGaussianBlur stdDeviation="5.00862"/>
<feColorMatrix type="matrix" values="0 0 0 0 0 0 0 0 0 0 0 0 0 0 0 0 0 0 0.055 0"/>
<feBlend mode="normal" in2="effect2_dropShadow" result="effect3_dropShadow"/>
<feBlend mode="normal" in="SourceGraphic" in2="effect3_dropShadow" result="shape"/>
</filter>
<linearGradient id="paint0_linear" x1="163.847" y1="71.7347" x2="153.489" y2="82.0937" gradientUnits="userSpaceOnUse">
<stop stop-color="#96324D"/>
<stop offset="1" stop-color="#352063"/>
</linearGradient>
<linearGradient id="paint1_linear" x1="219.435" y1="44.5115" x2="145.958" y2="117.997" gradientUnits="userSpaceOnUse">
<stop stop-color="#F1673A"/>
<stop offset="0.12" stop-color="#EC653B"/>
<stop offset="0.27" stop-color="#DE603E"/>
<stop offset="0.42" stop-color="#C65743"/>
<stop offset="0.59" stop-color="#A44A4B"/>
<stop offset="0.76" stop-color="#793A54"/>
<stop offset="0.93" stop-color="#45265F"/>
<stop offset="0.98" stop-color="#352063"/>
</linearGradient>
</defs>
</svg>
